<?xml version="1.0" encoding="UTF-8"?> <svg xmlns="http://www.w3.org/2000/svg" width="501" height="355" viewBox="0 0 501 355" fill="none"><g opacity="0.1"><path d="M383.315 355H117.045C52.5084 355 0 302.498 0 237.96V117.048C0 52.5097 52.5084 0.0078125 117.045 0.0078125H383.315C447.852 0.0078125 500.353 52.5097 500.353 117.048V237.96C500.353 302.498 447.852 355 383.315 355ZM117.045 1.53495C53.3551 1.53495 1.53436 53.3565 1.53436 117.048V237.96C1.53436 301.651 53.3551 353.473 117.045 353.473H383.315C447.005 353.473 498.826 301.651 498.826 237.96V117.048C498.826 53.3565 447.005 1.53495 383.315 1.53495H117.045Z" fill="#FCF5ED"></path><path d="M383.315 345.823H117.046C57.5675 345.823 9.18457 297.439 9.18457 237.96V117.048C9.18457 57.5692 57.5748 9.18555 117.046 9.18555H383.315C442.786 9.18555 491.176 57.5692 491.176 117.048V237.96C491.176 297.432 442.786 345.823 383.315 345.823ZM117.046 10.7127C58.4143 10.7127 10.7189 58.416 10.7189 117.048V237.96C10.7189 296.592 58.4216 344.296 117.046 344.296H383.315C441.946 344.296 489.641 296.592 489.641 237.96V117.048C489.641 58.416 441.946 10.7127 383.315 10.7127H117.046Z" fill="#FCF5ED"></path><path d="M11.6455 40.0035C10.6395 40.0035 9.61172 39.8732 8.57675 39.5765C8.32344 39.5041 2.43932 37.7671 0.586513 32.0059C-0.795857 27.6995 0.239104 21.8804 4.37898 19.5933C7.05687 18.1168 11.2619 17.9432 13.7805 20.5415C15.2715 22.0759 16.0966 24.5077 15.8722 26.7369C15.7202 28.2713 15.0761 29.4944 14.0628 30.1892C12.2679 31.4196 9.85779 30.6524 8.90244 30.2688C8.51161 30.1096 8.32345 29.6609 8.48267 29.27C8.6419 28.8792 9.09062 28.6911 9.48145 28.8503C10.046 29.0747 11.9856 29.7622 13.2015 28.9299C13.8312 28.4956 14.2438 27.6633 14.3523 26.5922C14.526 24.8262 13.8602 22.8286 12.6804 21.6199C10.6901 19.5716 7.29571 19.7453 5.11721 20.9468C1.67214 22.8503 0.847061 27.837 2.04125 31.5499C3.64075 36.5439 8.77217 38.0565 8.9893 38.1144C13.7805 39.4679 18.4198 36.8913 20.8951 33.7357C23.7105 30.1531 23.5585 26.0204 23.3631 24.4064C23.3124 23.9866 23.6091 23.603 24.0289 23.5523C24.4559 23.5089 24.8323 23.7984 24.8829 24.2182C25.1001 26.0204 25.2665 30.6452 22.1037 34.6765C19.8384 37.5499 15.9446 40.0035 11.6455 40.0035Z" fill="#FCF5ED"></path><path d="M25.9678 24.9922C25.2441 24.9922 24.6434 24.9416 24.2019 24.891C23.7821 24.8403 23.4853 24.4567 23.536 24.0369C23.5867 23.6171 23.963 23.3276 24.39 23.371C26.004 23.5736 30.1294 23.7184 33.7192 20.903C36.8748 18.4277 39.4586 13.7811 38.0979 8.99702C38.04 8.77989 36.5419 3.65565 31.5335 2.0489C27.8134 0.854683 22.834 1.67977 20.9305 5.1249C19.7218 7.30343 19.5481 10.6978 21.6036 12.6882C22.8123 13.8607 24.8098 14.5411 26.5758 14.3601C27.6542 14.2516 28.4792 13.8463 28.9207 13.2094C29.7531 11.9935 29.0727 10.0538 28.8411 9.48922C28.6819 9.09838 28.8701 8.64965 29.2609 8.49042C29.6517 8.33119 30.1005 8.51934 30.2597 8.91017C30.6433 9.86554 31.4105 12.2757 30.1801 14.0706C29.4853 15.0839 28.2621 15.7208 26.7278 15.88C24.5131 16.1044 22.074 15.2793 20.5324 13.7883C17.9342 11.2696 18.1079 7.06457 19.5915 4.38664C21.8786 0.253944 27.6976 -0.78827 32.0039 0.594121C37.7867 2.4542 39.502 8.33843 39.5744 8.58451C41.1232 14.0489 38.2282 19.3179 34.6673 22.1116C31.6059 24.5001 28.2187 24.9922 25.9678 24.9922Z" fill="#FCF5ED"></path><path d="M20.0626 23.8773C19.0856 23.8773 18.1085 23.5082 17.363 22.7627C16.6393 22.0389 16.2412 21.0836 16.2412 20.0631C16.2412 19.0425 16.6393 18.0872 17.363 17.3634C18.8033 15.9231 21.3147 15.9231 22.7622 17.3634C23.486 18.0872 23.8841 19.0425 23.8841 20.0631C23.8841 21.0836 23.486 22.0389 22.7695 22.7627C22.0168 23.5009 21.0397 23.8773 20.0626 23.8773ZM20.0626 17.7759C19.4547 17.7759 18.8757 18.0148 18.4487 18.4418C18.0144 18.8761 17.7756 19.4478 17.7756 20.0558C17.7756 20.6638 18.0144 21.2428 18.4487 21.6698C19.3389 22.56 20.7864 22.56 21.6838 21.6698C22.1181 21.2355 22.3497 20.6638 22.3497 20.0558C22.3497 19.4478 22.1109 18.8688 21.6838 18.4418C21.2424 18.0148 20.6706 17.7759 20.0626 17.7759Z" fill="#FCF5ED"></path><path d="M474.385 24.9911C472.134 24.9911 468.747 24.5062 465.693 22.1033C462.132 19.3095 459.237 14.0405 460.786 8.56889C460.858 8.32281 462.581 2.43133 468.356 0.578496C472.663 -0.803895 478.482 0.238319 480.769 4.37102C482.245 7.04895 482.419 11.2468 479.828 13.7727C478.293 15.2637 475.862 16.0888 473.633 15.8644C472.098 15.7124 470.875 15.0683 470.18 14.055C468.95 12.2601 469.717 9.84992 470.101 8.89455C470.26 8.50371 470.709 8.3228 471.099 8.47479C471.49 8.63402 471.678 9.08276 471.519 9.47359C471.288 10.0381 470.607 11.9778 471.44 13.1938C471.874 13.8307 472.706 14.236 473.777 14.3445C475.536 14.5255 477.541 13.8524 478.749 12.6727C480.798 10.6823 480.624 7.29504 479.423 5.10927C477.519 1.66415 472.54 0.839058 468.82 2.03327C463.818 3.64003 462.32 8.76427 462.255 8.98139C460.902 13.7655 463.478 18.4121 466.634 20.8874C470.216 23.7028 474.349 23.5581 475.963 23.3554C476.383 23.3193 476.766 23.6015 476.817 24.0212C476.868 24.441 476.571 24.8247 476.151 24.8753C475.717 24.9405 475.109 24.9911 474.385 24.9911Z" fill="#FCF5ED"></path><path d="M488.715 40.0016C484.408 40.0016 480.522 37.548 478.257 34.6674C475.087 30.6288 475.253 26.0112 475.477 24.209C475.528 23.7892 475.904 23.4997 476.331 23.5431C476.751 23.5938 477.048 23.9774 476.997 24.3972C476.802 26.0039 476.65 30.1366 479.465 33.7265C481.948 36.8821 486.58 39.4588 491.371 38.1053C491.588 38.0474 496.72 36.5347 498.319 31.5407C499.513 27.8278 498.688 22.8411 495.243 20.9376C493.065 19.7361 489.67 19.5624 487.68 21.6107C486.507 22.8194 485.834 24.817 486.008 26.583C486.117 27.6541 486.522 28.4864 487.159 28.9279C488.375 29.7603 490.314 29.0727 490.879 28.8483C491.27 28.6891 491.718 28.8773 491.878 29.2681C492.037 29.6589 491.849 30.1077 491.458 30.2669C490.503 30.6505 488.092 31.4177 486.297 30.1873C485.284 29.4925 484.647 28.2621 484.488 26.7349C484.264 24.513 485.089 22.0812 486.58 20.5395C489.098 17.9412 493.303 18.1149 495.981 19.5914C500.114 21.8785 501.156 27.6975 499.774 32.0039C497.921 37.7651 492.037 39.5021 491.784 39.5745C490.749 39.864 489.721 40.0016 488.715 40.0016Z" fill="#FCF5ED"></path><path d="M480.298 23.8754C479.321 23.8754 478.344 23.5062 477.598 22.7607C476.875 22.037 476.477 21.0816 476.477 20.0611C476.477 19.0406 476.875 18.0852 477.598 17.3615C479.039 15.9212 481.557 15.9212 482.998 17.3615C483.721 18.0852 484.112 19.0406 484.112 20.0611C484.112 21.0816 483.714 22.037 482.998 22.7607C482.252 23.499 481.275 23.8754 480.298 23.8754ZM480.298 17.774C479.69 17.774 479.111 18.0129 478.684 18.4399C478.257 18.8669 478.011 19.4459 478.011 20.0539C478.011 20.6618 478.25 21.2408 478.684 21.6678C479.574 22.5581 481.029 22.5581 481.919 21.6678C482.353 21.2336 482.592 20.6618 482.592 20.0539C482.592 19.4459 482.353 18.8669 481.926 18.4399C481.485 18.0129 480.913 17.774 480.298 17.774ZM482.455 22.2179H482.469H482.455Z" fill="#FCF5ED"></path><path d="M491.719 336.479C489.852 336.479 487.963 335.885 486.587 334.467C485.097 332.925 484.271 330.5 484.496 328.271C484.648 326.744 485.292 325.514 486.305 324.819C488.1 323.588 490.51 324.356 491.466 324.739C491.856 324.898 492.045 325.347 491.885 325.738C491.726 326.129 491.277 326.317 490.887 326.158C490.322 325.926 488.382 325.246 487.166 326.078C486.537 326.512 486.124 327.345 486.016 328.416C485.842 330.182 486.508 332.18 487.688 333.388C489.678 335.436 493.065 335.263 495.251 334.061C498.696 332.158 499.521 327.171 498.327 323.458C496.727 318.464 491.596 316.951 491.379 316.894C486.587 315.54 481.948 318.117 479.473 321.272C476.658 324.862 476.81 328.988 477.005 330.602C477.056 331.021 476.759 331.405 476.339 331.456C475.919 331.499 475.536 331.21 475.485 330.79C475.268 328.988 475.101 324.37 478.264 320.331C481.058 316.771 486.327 313.868 491.791 315.424C492.045 315.497 497.929 317.234 499.782 322.995C501.164 327.301 500.122 333.12 495.989 335.407C494.78 336.081 493.26 336.479 491.719 336.479Z" fill="#FCF5ED"></path><path d="M472.149 355C470.839 355 469.543 354.804 468.356 354.421C462.588 352.568 460.858 346.677 460.786 346.431C459.237 340.966 462.132 335.697 465.693 332.896C469.731 329.726 474.349 329.9 476.151 330.117C476.571 330.168 476.868 330.551 476.817 330.971C476.766 331.391 476.383 331.68 475.963 331.637C474.356 331.441 470.224 331.289 466.634 334.105C463.478 336.587 460.894 341.227 462.255 346.011C462.313 346.228 463.818 351.359 468.82 352.959C472.532 354.153 477.519 353.328 479.423 349.883C480.631 347.704 480.805 344.317 478.749 342.327C477.541 341.154 475.536 340.481 473.777 340.655C472.699 340.763 471.874 341.169 471.44 341.806C470.607 343.022 471.288 344.961 471.519 345.526C471.678 345.917 471.49 346.365 471.099 346.525C470.709 346.677 470.26 346.496 470.101 346.105C469.71 345.149 468.943 342.739 470.18 340.944C470.875 339.931 472.098 339.294 473.633 339.135C475.862 338.918 478.286 339.736 479.828 341.227C482.426 343.745 482.252 347.95 480.769 350.628C479.111 353.632 475.594 355 472.149 355Z" fill="#FCF5ED"></path><path d="M480.298 338.758C479.277 338.758 478.322 338.36 477.598 337.637C476.875 336.92 476.477 335.958 476.477 334.937C476.477 333.917 476.875 332.961 477.591 332.237C479.082 330.746 481.499 330.746 482.99 332.237C483.714 332.961 484.112 333.917 484.112 334.937C484.112 335.958 483.714 336.913 482.99 337.637C482.281 338.36 481.318 338.758 480.298 338.758ZM480.298 332.657C479.712 332.657 479.125 332.882 478.684 333.323C478.25 333.757 478.011 334.329 478.011 334.937C478.011 335.545 478.25 336.124 478.684 336.551C479.545 337.412 481.051 337.412 481.919 336.551C482.353 336.117 482.592 335.545 482.592 334.937C482.592 334.329 482.353 333.75 481.919 333.323C481.47 332.882 480.884 332.657 480.298 332.657Z" fill="#FCF5ED"></path><path d="M28.2119 354.999C24.7596 354.999 21.2494 353.631 19.592 350.628C18.1156 347.95 17.9419 343.752 20.5329 341.226C22.0745 339.735 24.5136 338.917 26.7282 339.134C28.2626 339.286 29.4858 339.931 30.1806 340.944C31.4109 342.739 30.6438 345.149 30.2602 346.104C30.1009 346.495 29.6522 346.683 29.2614 346.524C28.8706 346.365 28.6824 345.916 28.8416 345.525C29.0732 344.961 29.7535 343.021 28.9212 341.805C28.487 341.168 27.6547 340.763 26.5763 340.654C24.8103 340.466 22.8127 341.147 21.6041 342.326C19.5558 344.317 19.7295 347.704 20.931 349.882C22.8345 353.327 27.8139 354.153 31.534 352.958C36.5424 351.352 38.0333 346.227 38.0984 346.01C39.4518 341.226 36.8753 336.58 33.7197 334.097C30.1299 331.282 26.0045 331.434 24.3905 331.629C23.9635 331.672 23.5872 331.383 23.5365 330.963C23.4858 330.543 23.7826 330.16 24.2023 330.109C26.0045 329.892 30.622 329.718 34.6606 332.888C38.2215 335.682 41.1165 340.951 39.5676 346.423C39.4953 346.669 37.78 352.553 31.9972 354.413C30.8175 354.804 29.5219 354.999 28.2119 354.999Z" fill="#FCF5ED"></path><path d="M8.63484 336.478C7.10049 336.478 5.5806 336.08 4.37193 335.407C0.239297 333.12 -0.802908 327.301 0.579463 322.994C2.43227 317.233 8.31639 315.496 8.56971 315.424C14.0413 313.875 19.303 316.77 22.1039 320.331C25.274 324.362 25.1075 328.987 24.8831 330.789C24.8325 331.209 24.4561 331.498 24.0291 331.455C23.6093 331.404 23.3126 331.021 23.3632 330.601C23.5587 328.987 23.7106 324.854 20.8952 321.272C18.42 318.116 13.7735 315.539 8.98224 316.893C8.76512 316.951 3.63371 318.463 2.03421 323.457C0.840016 327.17 1.6651 332.157 5.11017 334.061C7.28866 335.262 10.6758 335.436 12.6734 333.387C13.8459 332.179 14.519 330.181 14.3453 328.415C14.2367 327.344 13.8314 326.512 13.1945 326.077C11.9786 325.245 10.0389 325.925 9.4744 326.157C9.08357 326.316 8.63484 326.128 8.47562 325.737C8.31639 325.346 8.50457 324.898 8.8954 324.738C9.85075 324.355 12.2609 323.588 14.0558 324.818C15.069 325.513 15.7132 326.743 15.8652 328.27C16.0895 330.492 15.2644 332.924 13.7735 334.466C12.3911 335.892 10.5021 336.478 8.63484 336.478Z" fill="#FCF5ED"></path><path d="M20.0626 338.757C19.0421 338.757 18.0868 338.359 17.363 337.635C16.6393 336.918 16.2412 335.956 16.2412 334.935C16.2412 333.915 16.6393 332.959 17.363 332.235C18.854 330.744 21.2713 330.744 22.7622 332.235C23.486 332.959 23.8841 333.915 23.8841 334.935C23.8841 335.956 23.486 336.911 22.7622 337.635C22.0385 338.359 21.0759 338.757 20.0626 338.757ZM18.4414 333.321C18.0072 333.755 17.7756 334.327 17.7756 334.935C17.7756 335.543 18.0144 336.122 18.4414 336.549C19.3099 337.41 20.8081 337.41 21.6766 336.549C22.1109 336.115 22.3497 335.543 22.3497 334.935C22.3497 334.327 22.1109 333.748 21.6766 333.321C20.7864 332.438 19.3389 332.431 18.4414 333.321Z" fill="#FCF5ED"></path><path d="M499.593 354.999H0.767183C0.347406 354.999 0 354.659 0 354.232V0.767145C0 0.347361 0.340168 0 0.767183 0H499.593C500.013 0 500.36 0.340124 500.36 0.767145V354.232C500.353 354.659 500.013 354.999 499.593 354.999ZM1.53436 353.472H498.826V1.53438H1.53436V353.472Z" fill="#FCF5ED"></path></g></svg> 