<?xml version="1.0" encoding="UTF-8"?> <svg xmlns="http://www.w3.org/2000/svg" width="676" height="868" viewBox="0 0 676 868" fill="none"><path d="M37.6172 7.28516C31.5678 35.3104 19.6672 57.9243 4.60059 69.7939V798.205C19.6677 810.056 31.5678 832.671 37.6172 860.715H636.423C642.762 831.298 655.382 808.133 671.409 796.726V71.2734C655.382 59.8661 642.772 36.7014 636.423 7.28516H37.6172ZM675.5 801.301L675.274 801.449L674.248 802.124C658.386 812.702 645.808 835.65 639.826 865.209L639.453 867.097L639.373 867.5H34.6699L34.5879 867.101L34.2041 865.23V865.229C28.5018 837.037 16.6147 814.558 1.67676 803.478L1.6748 803.476L0.699219 802.742L0.5 802.593V65.4082L0.699219 65.2578L1.6748 64.5254L1.67676 64.5234C16.6151 53.424 28.5018 30.9436 34.2041 2.77148V2.76953L34.5879 0.899414L34.6699 0.5H639.372L639.453 0.902344L639.826 2.77148L640.111 4.15234C646.106 32.589 658.241 54.7523 673.509 65.3545L674.25 65.8584L674.253 65.8604L675.28 66.5547L675.5 66.7031V801.301Z" stroke="#402E00"></path></svg> 