<svg width="847" height="530" viewBox="0 0 847 530" fill="none" xmlns="http://www.w3.org/2000/svg">
<g clip-path="url(#clip0_2097_3175)">
<path d="M839.891 29.4924C812.544 24.7495 790.477 15.4192 778.894 3.6066L68.1061 3.60656C56.5418 15.4195 34.4739 24.7495 7.1084 29.4924L7.10838 498.97C35.8137 503.94 58.4182 513.835 69.5493 526.4L777.451 526.4C788.582 513.835 811.186 503.948 839.891 498.97L839.891 29.4924ZM65.0849 529.608L64.9406 529.43L64.2819 528.626C53.9598 516.19 31.567 506.328 2.72315 501.638L0.880823 501.346L0.487558 501.283L0.487579 27.1816L0.876913 27.1173L2.70268 26.8164C30.2126 22.3457 52.1487 13.0259 62.9606 1.31421L62.9626 1.31268L63.6788 0.547797L63.8242 0.391604L783.174 0.391636L783.321 0.547828L784.035 1.31271L784.037 1.31424C794.868 13.0263 816.805 22.3457 844.295 26.8165L844.297 26.8165L846.122 27.1174L846.512 27.1817L846.512 501.283L846.119 501.346L844.295 501.638L842.948 501.862C815.199 506.562 793.572 516.076 783.226 528.047L782.735 528.628L782.733 528.63L782.055 529.435L781.91 529.608L65.0849 529.608Z" stroke="#FCF5ED"/>
</g>
<defs>
<clipPath id="clip0_2097_3175">
<rect width="530" height="847" fill="white" transform="translate(847 3.70235e-05) rotate(90)"/>
</clipPath>
</defs>
</svg>
