<svg width="847" height="530" viewBox="0 0 847 530" fill="none" xmlns="http://www.w3.org/2000/svg">
<g clip-path="url(#clip0_2100_3206)">
<mask id="mask0_2100_3206" style="mask-type:luminance" maskUnits="userSpaceOnUse" x="0" y="0" width="847" height="530">
<path d="M847 530V0L0 0V530H847Z" fill="white"/>
</mask>
<g mask="url(#mask0_2100_3206)">
<path d="M839.891 29.4924C812.544 24.7495 790.477 15.4192 778.894 3.6066L68.1059 3.60656C56.5416 15.4195 34.4736 24.7495 7.10815 29.4924L7.10813 498.97C35.8134 503.94 58.4179 513.835 69.549 526.4H777.451C788.582 513.835 811.186 503.948 839.891 498.97V29.4924ZM65.0846 529.608L64.9403 529.43L64.2816 528.626C53.9595 516.19 31.5667 506.328 2.7229 501.638L0.88057 501.346L0.487305 501.283L0.487326 27.1816L0.87666 27.1173L2.70243 26.8164C30.2123 22.3457 52.1484 13.0259 62.9604 1.31421L62.9623 1.31268L63.6785 0.547795L63.8239 0.391602L783.174 0.391634L783.321 0.547826L784.035 1.31271L784.037 1.31424C794.868 13.0263 816.805 22.3457 844.295 26.8165H844.297L846.122 27.1174L846.512 27.1817V501.283L846.119 501.346L844.295 501.638L842.948 501.862C815.199 506.562 793.572 516.076 783.226 528.047L782.735 528.628L782.733 528.63L782.055 529.435L781.91 529.608H65.0846Z" stroke="#402E00"/>
</g>
</g>
<defs>
<clipPath id="clip0_2100_3206">
<rect width="847" height="530" fill="white"/>
</clipPath>
</defs>
</svg>
