<?xml version="1.0" encoding="UTF-8"?> <svg xmlns="http://www.w3.org/2000/svg" width="1728" height="199" viewBox="0 0 1728 199" fill="none"><g clip-path="url(#clip0_178_2026)"><path d="M85.788 13.3713C78.496 20.6633 72.5713 27.3476 72.5713 28.1072C72.5713 28.8668 76.5211 33.4243 81.2305 38.2856L89.8898 47.0968L85.4842 51.6543L81.0786 56.2118L71.5078 46.7929L61.9371 37.2222L57.0757 42.2354L52.0625 47.0968L66.4946 61.5289L80.9267 75.9609L90.3455 66.5421L99.9163 57.1233L109.487 66.5421L118.906 75.9609L133.338 61.3769L147.77 46.9449L142.605 42.2354L137.592 37.6779L128.173 46.9449L118.754 56.2118L114.348 51.6543L109.943 47.0968L118.906 37.9818L127.869 28.8668L122.704 23.2459C111.462 10.9406 100.676 0.00260162 99.9163 0.00260162C99.4605 0.00260162 93.08 5.92735 85.788 13.3713ZM104.93 24.0054L109.031 28.2591L104.474 32.6647L99.9163 37.0703L95.3587 32.6647L90.8013 28.2591L94.903 24.0054C97.1818 21.7267 99.4605 19.7518 99.9163 19.7518C100.372 19.7518 102.651 21.7267 104.93 24.0054Z" fill="url(#paint0_linear_178_2026)"></path><path d="M237.704 13.3713C230.412 20.6633 224.488 27.3476 224.488 28.1072C224.488 28.8668 228.438 33.4243 233.147 38.2856L241.806 47.0968L237.249 51.8062L232.539 56.5156L222.665 47.2487L212.79 38.1337L208.385 42.6912L204.131 47.0968L218.411 61.5289L232.843 75.9609L242.262 66.5421L251.833 57.1233L261.403 66.5421L270.822 75.9609L284.951 61.8327L298.927 47.8564L294.066 42.8431L289.052 37.9818L279.937 47.0968L270.67 56.2118L266.265 51.6543L261.859 47.0968L270.518 38.2856C275.228 33.4243 279.178 28.8668 279.178 28.1072C279.178 26.588 253.352 0.00260162 251.833 0.00260162C251.377 0.00260162 244.996 5.92735 237.704 13.3713ZM256.846 24.0054L260.948 28.2591L256.39 32.6647L251.833 37.0703L247.275 32.6647L242.718 28.2591L246.819 24.0054C249.098 21.7267 251.377 19.7518 251.833 19.7518C252.288 19.7518 254.567 21.7267 256.846 24.0054Z" fill="url(#paint1_linear_178_2026)"></path><path d="M389.622 13.3713C382.33 20.6633 376.405 27.3476 376.405 28.1072C376.405 28.8668 380.355 33.4243 385.064 38.2856L393.724 47.0968L388.71 52.11L383.849 56.9714L374.734 47.2487L365.619 37.3741L360.758 42.2354L355.896 47.0968L370.329 61.5289L384.761 75.9609L394.179 66.5421L403.75 57.1233L413.321 66.5421L422.74 75.9609L436.868 61.8327L450.844 47.7044L446.439 42.5393L441.881 37.2222L432.311 46.7929L422.588 56.2118L418.182 51.6543L413.777 47.0968L422.436 38.2856C427.145 33.4243 431.095 28.8668 431.095 28.1072C431.095 26.588 405.269 0.00260162 403.75 0.00260162C403.294 0.00260162 396.914 5.92735 389.622 13.3713ZM408.763 24.0054L412.865 28.2591L408.308 32.6647L403.75 37.0703L399.193 32.6647L394.635 28.2591L398.737 24.0054C401.016 21.7267 403.294 19.7518 403.75 19.7518C404.206 19.7518 406.485 21.7267 408.763 24.0054Z" fill="url(#paint2_linear_178_2026)"></path><path d="M541.538 13.3713C534.246 20.6633 528.321 27.3476 528.321 28.1072C528.321 28.8668 532.271 33.4243 536.98 38.2856L545.64 47.0968L540.93 51.9581L536.069 56.8194L526.954 46.9449L517.839 37.2222L512.826 42.0835L507.812 47.0968L522.245 61.5289L536.677 75.9609L546.096 66.5421L555.666 57.1233L565.237 66.5421L574.656 75.9609L589.088 61.5289L603.52 47.0968L598.507 42.2354L593.645 37.2222L584.075 46.7929L574.504 56.2118L570.098 51.6543L565.693 47.0968L574.352 38.2856C579.061 33.4243 583.011 28.8668 583.011 28.1072C583.011 26.7399 568.731 12.1559 558.705 3.49669L554.755 0.00260162L541.538 13.3713ZM560.68 24.0054L564.781 28.2591L559.768 33.1204L554.755 37.9818L550.349 33.4243L545.944 28.8668L550.349 24.3093C552.78 21.7267 555.21 19.7518 555.666 19.7518C556.122 19.7518 558.401 21.7267 560.68 24.0054Z" fill="url(#paint3_linear_178_2026)"></path><path d="M693.456 13.3713C686.164 20.6633 680.239 27.3476 680.239 28.1072C680.239 28.8668 684.189 33.4243 688.898 38.2856L697.558 47.0968L693.152 51.6543L688.747 56.2118L679.176 46.7929L669.605 37.2222L664.744 42.2354L659.73 47.0968L674.163 61.5289L688.595 75.9609L698.013 66.5421L707.584 57.1233L717.155 66.5421L726.574 75.9609L741.006 61.5289L755.438 47.0968L750.425 42.2354L745.563 37.2222L735.689 47.0968L725.814 56.8194L722.016 53.1734C719.889 51.1985 718.218 48.9198 718.218 47.8564C718.218 46.9449 722.016 42.5393 726.574 37.9818C731.131 33.4243 734.929 29.0187 734.929 28.1072C734.929 27.1957 733.41 25.2208 731.587 23.7016C729.612 22.1824 723.232 16.2577 717.459 10.4849L706.825 0.00260162L693.456 13.3713ZM712.597 24.0054L716.699 28.2591L711.534 33.2724L706.521 38.1337L702.419 33.2724L698.317 28.411L702.419 24.1574C704.698 21.7267 707.128 19.7518 707.584 19.7518C708.04 19.7518 710.319 21.7267 712.597 24.0054Z" fill="url(#paint4_linear_178_2026)"></path><path d="M845.372 13.3713C838.08 20.6633 832.155 27.3476 832.155 28.1072C832.155 28.8668 836.105 33.4243 840.814 38.2856L849.474 47.0968L845.068 51.6543L840.663 56.2118L831.092 46.7929L821.521 37.2222L816.66 42.2354L811.646 47.0968L826.079 61.5289L840.511 75.9609L849.929 66.5421L859.5 57.1233L869.071 66.5421L878.49 75.9609L892.922 61.5289L907.354 47.0968L902.341 42.2354L897.479 37.2222L887.605 47.0968L877.73 56.8194L873.932 53.1734C871.805 51.1985 870.134 48.9198 870.134 48.0083C870.134 47.0968 873.932 42.5393 878.794 37.6779L887.301 29.0187L873.932 14.8904C866.64 7.14268 860.108 0.610268 859.652 0.306435C859.044 0.154518 852.664 5.92735 845.372 13.3713ZM864.513 24.0054L868.615 28.2591L864.058 32.6647L859.5 37.0703L854.943 32.6647L850.385 28.2591L854.487 24.0054C856.766 21.7267 859.044 19.7518 859.5 19.7518C859.956 19.7518 862.235 21.7267 864.513 24.0054Z" fill="url(#paint5_linear_178_2026)"></path><path d="M997.288 13.3713C989.996 20.6633 984.071 27.3476 984.071 28.1072C984.071 28.8668 988.021 33.4243 992.73 38.2856L1001.39 47.0968L996.984 51.6543L992.427 56.0599L982.552 47.0968L972.677 37.9818L968.12 42.5393L963.562 47.0968L977.995 61.5289L992.427 75.9609L1001.85 66.5421L1011.42 57.1233L1020.99 66.5421L1030.41 75.9609L1044.53 61.8327L1058.51 47.7044L1053.5 42.8431L1048.48 37.9818L1039.52 47.0968C1034.51 52.11 1030.1 56.2118 1029.65 56.2118C1029.04 56.2118 1027.06 54.0849 1025.24 51.5024L1021.75 46.7929L1030.56 37.8299L1039.37 28.8668L1034.2 23.2459C1022.96 10.9406 1012.18 0.00260162 1011.42 0.00260162C1010.96 0.00260162 1004.58 5.92735 997.288 13.3713ZM1016.43 24.0054L1020.53 28.2591L1015.97 32.6647L1011.42 37.0703L1006.86 32.6647L1002.3 28.2591L1006.4 24.0054C1008.68 21.7267 1010.96 19.7518 1011.42 19.7518C1011.87 19.7518 1014.15 21.7267 1016.43 24.0054Z" fill="url(#paint6_linear_178_2026)"></path><path d="M1149.2 13.3713C1141.91 20.6633 1135.99 27.3476 1135.99 28.1072C1135.99 28.8668 1139.94 33.4243 1144.65 38.2856L1153.31 47.0968L1148.44 51.9581L1143.58 56.9714L1134.01 47.4006L1124.44 37.9818L1120.04 42.5393L1115.63 47.0968L1129.91 61.5289L1144.34 75.9609L1153.76 66.5421L1163.33 57.1233L1172.9 66.5421L1182.32 75.9609L1196.45 61.8327L1210.43 47.8564L1205.57 42.8431L1200.55 37.9818L1191.44 47.0968L1182.17 56.2118L1177.76 51.6543L1173.36 47.0968L1182.02 38.2856C1186.73 33.4243 1190.68 28.8668 1190.68 28.1072C1190.68 26.588 1164.85 0.00260162 1163.33 0.00260162C1162.88 0.00260162 1156.5 5.92735 1149.2 13.3713ZM1168.35 24.0054L1172.45 28.2591L1167.89 32.6647L1163.33 37.0703L1158.78 32.6647L1154.22 28.2591L1158.32 24.0054C1160.6 21.7267 1162.88 19.7518 1163.33 19.7518C1163.79 19.7518 1166.07 21.7267 1168.35 24.0054Z" fill="url(#paint7_linear_178_2026)"></path><path d="M1301.12 13.3713C1293.83 20.6633 1287.91 27.3476 1287.91 28.1072C1287.91 28.8668 1291.86 33.4243 1296.56 38.2856L1305.22 47.0968L1300.21 52.11L1295.35 56.9714L1286.23 47.2487L1277.12 37.3741L1272.26 42.2354L1267.4 47.0968L1281.83 61.5289L1296.26 75.9609L1305.68 66.5421L1315.25 57.1233L1324.82 66.5421L1334.24 75.9609L1348.37 61.8327L1362.34 47.7044L1357.94 42.5393L1353.38 37.2222L1343.81 46.7929L1334.09 56.2118L1329.68 51.6543L1325.28 47.0968L1333.94 38.2856C1338.65 33.4243 1342.6 28.8668 1342.6 28.1072C1342.6 26.7399 1328.32 12.1559 1318.29 3.49669L1314.34 0.00260162L1301.12 13.3713ZM1320.26 24.0054L1324.37 28.2591L1319.35 33.1204L1314.34 37.9818L1309.93 33.4243L1305.53 28.8668L1309.93 24.3093C1312.36 21.7267 1314.79 19.7518 1315.25 19.7518C1315.71 19.7518 1317.98 21.7267 1320.26 24.0054Z" fill="url(#paint8_linear_178_2026)"></path><path d="M1453.04 13.3713C1445.75 20.6633 1439.82 27.3476 1439.82 28.1072C1439.82 28.8668 1443.77 33.4243 1448.48 38.2856L1457.14 47.0968L1452.43 51.9581L1447.57 56.8194L1438.45 46.9449L1429.34 37.2222L1424.33 42.0835L1419.31 47.0968L1433.74 61.5289L1448.18 75.9609L1457.6 66.5421L1467.17 57.1233L1476.74 66.5421L1486.16 75.9609L1500.59 61.5289L1515.02 47.0968L1510.01 42.2354L1505.15 37.2222L1495.73 46.641L1486.16 56.0599L1482.05 53.0215C1479.62 51.1985 1477.8 49.0717 1477.8 48.0083C1477.8 47.0968 1481.6 42.5393 1486.16 37.9818C1490.71 33.4243 1494.51 29.0187 1494.51 28.1072C1494.51 27.1957 1492.99 25.2208 1491.17 23.7016C1489.19 22.1824 1482.81 16.2577 1477.04 10.4849L1466.41 0.00260162L1453.04 13.3713ZM1472.18 24.0054L1476.28 28.2591L1471.27 33.1204L1466.25 37.9818L1461.85 33.4243L1457.44 28.8668L1461.85 24.3093C1464.28 21.7267 1466.71 19.7518 1467.17 19.7518C1467.62 19.7518 1469.9 21.7267 1472.18 24.0054Z" fill="url(#paint9_linear_178_2026)"></path><path d="M1604.96 13.3713C1597.66 20.6633 1591.74 27.3476 1591.74 28.1072C1591.74 28.8668 1595.69 33.4243 1600.4 38.2856L1609.06 47.0968L1604.65 51.6543L1600.25 56.2118L1590.68 46.7929L1581.11 37.2222L1576.24 42.2354L1571.23 47.0968L1585.66 61.5289L1600.09 75.9609L1609.51 66.5421L1619.08 57.1233L1628.65 66.5421L1638.07 75.9609L1652.51 61.5289L1666.94 47.0968L1661.92 42.2354L1657.06 37.2222L1647.19 47.0968L1637.31 56.8194L1633.52 53.1734C1631.39 51.1985 1629.72 48.9198 1629.72 48.0083C1629.72 47.0968 1633.67 42.5393 1638.38 37.6779L1647.19 28.8668L1632.76 14.4347L1618.32 0.00260162L1604.96 13.3713ZM1624.1 24.0054L1628.2 28.2591L1623.03 33.2724L1618.02 38.1337L1613.92 33.2724L1609.82 28.411L1613.92 24.1574C1616.2 21.7267 1618.63 19.7518 1619.08 19.7518C1619.54 19.7518 1621.82 21.7267 1624.1 24.0054Z" fill="url(#paint10_linear_178_2026)"></path><path d="M1757.02 13.2194C1749.58 20.6633 1743.66 27.3476 1743.66 28.1072C1743.66 28.8668 1747.61 33.4243 1752.31 38.2856L1760.97 47.0968L1756.57 51.6543L1752.01 56.0599L1742.14 47.0968L1732.26 37.9818L1727.7 42.5393L1723.15 47.0968L1737.58 61.5289L1752.01 75.9609L1761.43 66.5421L1771 57.1233V47.0968C1771 37.8299 1770.54 36.6145 1766.44 32.6647L1761.89 28.2591L1766.44 23.5497C1770.85 18.9922 1771.15 17.9288 1770.7 9.26952L1770.24 -0.149315L1757.02 13.2194Z" fill="url(#paint11_linear_178_2026)"></path><path d="M18.6413 42.5341L14.2357 47.0916L23.6545 56.6623L33.0733 66.2331L28.5158 70.6386L23.9583 75.0442L15.1472 66.385C10.2858 61.6756 5.72833 57.7257 4.96875 57.7257C4.05725 57.7257 -2.779 63.9543 -10.2229 71.3982L-23.8954 85.0707L-18.8822 89.9321L-14.0208 94.9453L-4.45008 85.3746L5.12067 75.9557L9.52625 80.5132L13.9318 85.0707L5.27258 93.8819C0.563167 98.7432 -3.38667 103.301 -3.38667 104.06C-3.38667 104.82 0.563167 109.377 5.27258 114.239L13.9318 123.05L9.52625 127.607L4.96875 132.013L-7.94417 119.556C-15.0842 112.568 -23.7435 104.364 -27.3895 101.022L-33.9219 95.2491L-43.0369 104.212L-52 113.023V122.898V132.773L-42.4292 123.354L-32.8585 113.935L-28.4529 118.492L-24.0473 123.05L-32.7066 131.861C-37.416 136.722 -41.3658 141.28 -41.3658 142.039C-41.3658 142.951 -35.1372 149.787 -27.6933 157.231L-14.0208 170.904L-9.1595 165.89L-4.14625 161.029L-13.717 151.458L-23.1358 141.888L-18.5783 137.482L-13.8689 133.076L-4.45008 142.495L4.96875 151.914L14.3876 142.495L23.9583 133.076L28.5158 137.482L33.0733 141.888L14.8433 160.269C4.81683 170.296 -3.38667 179.259 -3.38667 180.019C-3.38667 180.93 2.84192 187.766 10.2858 195.21L23.9583 208.883L28.8197 203.87L33.8329 199.008L24.2622 189.437L14.8433 179.867L19.4008 175.461L23.9583 171.056L33.5291 180.474L42.9479 189.893L57.38 175.461L71.8121 161.029L66.7988 156.168L61.9375 151.154L52.0629 161.029L42.1883 170.752L38.3904 167.106C36.2636 165.131 34.5925 162.852 34.5925 161.941C34.5925 161.029 38.3904 156.472 43.2518 151.61L51.7591 142.951L43.2518 133.684C38.3904 128.519 34.5925 123.809 34.5925 123.202C34.5925 122.594 36.5674 120.315 38.8462 118.037L43.0998 113.935L61.9375 132.924L80.9271 151.914L99.9167 132.924L119.058 113.935L123.464 118.492L127.869 123.05L119.21 131.861C114.501 136.722 110.551 141.28 110.551 142.039C110.551 142.951 116.779 149.787 124.223 157.231L137.896 170.904L142.605 166.042L147.467 161.333L137.744 152.218L128.021 142.951L133.035 137.938L137.896 132.924L147.315 142.495L156.885 151.914L166.304 142.495L175.875 133.076L180.433 137.482L184.99 141.888L166.76 160.269C156.734 170.296 148.53 179.259 148.53 180.019C148.53 180.93 154.759 187.766 162.203 195.21L175.875 208.883L180.736 203.87L185.75 199.008L176.179 189.437L166.76 179.867L171.318 175.461L175.875 171.056L185.446 180.474L194.865 189.893L208.993 175.765L222.969 161.789L218.108 156.775L213.095 151.914L203.98 161.029L194.713 170.144L190.307 165.587L185.902 161.029L194.865 151.914L203.828 142.951L200.789 139.457C199.27 137.634 195.32 133.228 192.282 129.886C189.092 126.544 186.509 123.354 186.509 122.898C186.509 122.442 188.484 120.315 190.763 118.037L195.017 113.935L213.854 132.924L232.844 151.914L251.833 132.924L270.975 113.935L275.38 118.492L279.786 123.05L271.127 131.861C266.417 136.722 262.468 141.28 262.468 142.039C262.468 142.951 268.544 149.787 276.14 157.231L289.813 170.752L294.218 166.498L298.776 162.092L289.661 152.218L280.394 142.343L285.103 137.634L289.813 132.924L299.383 142.495L308.802 151.914L318.221 142.495L327.64 133.076L332.349 137.482L336.907 141.888L318.677 160.269C308.65 170.296 300.447 179.259 300.447 180.019C300.447 180.93 306.675 187.766 314.119 195.21L327.792 208.883L332.653 203.87L337.666 199.008L328.096 189.437L318.677 179.867L323.234 175.461L327.792 171.056L337.362 180.474L346.781 189.893L360.758 175.765L374.734 161.789L370.176 156.623L365.467 151.61L356.048 160.877L346.629 170.144L342.224 165.587L337.818 161.029L346.477 152.218C351.187 147.357 355.137 142.799 355.137 142.039C355.137 141.28 351.187 136.722 346.477 131.861L337.818 123.05L342.224 118.492L346.629 113.935L365.771 132.924L384.76 151.914L403.75 132.924L422.74 113.935L427.297 118.492L431.703 123.05L423.043 131.861C418.334 136.722 414.384 141.28 414.384 142.039C414.384 142.951 420.613 149.787 428.057 157.231L441.729 170.904L446.287 166.194L450.996 161.637L441.881 151.61L432.766 141.736L437.324 137.33L441.729 133.076L451.3 142.495L460.719 151.914L470.138 142.495L479.556 133.076L484.266 137.482L488.823 141.888L470.593 160.269C460.567 170.296 452.363 179.259 452.363 180.019C452.363 180.93 458.592 187.766 466.036 195.21L479.708 208.883L484.722 203.87L489.583 198.856L479.708 189.741L469.986 180.778L474.847 175.917L479.708 170.904L489.279 180.474L498.698 189.893L513.13 175.461L527.562 161.029L522.549 156.168L517.688 151.154L508.117 160.725L498.546 170.144L494.14 165.587L489.735 161.029L498.394 152.218C503.104 147.357 507.053 142.799 507.053 142.039C507.053 141.28 503.104 136.722 498.394 131.861L489.735 123.05L494.14 118.492L498.698 113.935L517.688 132.924L536.677 151.914L555.667 132.924L574.808 113.935L579.214 118.492L583.619 123.05L574.96 131.861C570.251 136.722 566.301 141.28 566.301 142.039C566.301 142.951 572.529 149.787 579.973 157.231L593.646 170.904L598.507 165.89L603.52 161.029L593.95 151.458L584.531 141.888L589.088 137.482L593.646 133.076L603.217 142.495L612.635 151.914L622.054 142.495L631.473 133.076L636.183 137.482L640.74 141.888L622.51 160.269C612.484 170.296 604.28 179.259 604.28 180.019C604.28 180.93 610.357 187.766 617.953 195.21L631.625 208.731L636.183 204.325L640.74 199.92L631.321 190.349L621.75 180.778L626.764 175.917L631.625 170.904L641.196 180.474L650.615 189.893L665.047 175.461L679.479 161.029L674.466 156.168L669.604 151.154L660.033 160.725L650.463 170.296L646.361 166.194C644.082 163.915 642.259 161.637 642.259 161.181C642.259 160.573 646.057 156.472 650.615 151.914C655.172 147.357 658.97 142.799 658.97 141.888C658.97 140.976 655.172 136.874 650.615 132.924C646.057 128.823 642.259 124.721 642.259 123.809C642.259 122.898 644.234 120.315 646.513 118.037L650.767 113.935L669.604 132.924L688.594 151.914L707.583 132.924L726.725 113.935L731.13 118.492L735.536 123.05L726.877 131.861C722.167 136.722 718.218 141.28 718.218 142.039C718.218 142.951 724.446 149.787 731.89 157.231L745.563 170.904L750.424 165.89L755.437 161.029L745.866 151.458L736.448 141.888L741.005 137.482L745.563 133.076L755.133 142.495L764.552 151.914L773.971 142.495L783.39 133.076L788.099 137.482L792.657 141.888L774.427 160.269C764.4 170.296 756.197 179.259 756.197 180.019C756.197 180.93 762.273 187.766 769.869 195.21L783.542 208.731L787.947 204.477L792.505 200.072L783.39 190.197L774.123 180.322L778.832 175.613L783.542 170.904L793.112 180.474L802.531 189.893L816.963 175.461L831.395 161.029L826.382 156.168L821.521 151.154L811.646 161.029L801.772 170.752L797.974 167.106C795.847 165.131 794.176 162.852 794.176 161.941C794.176 161.029 798.126 156.472 802.835 151.61L811.494 142.799L802.835 133.988C798.126 129.127 794.176 124.569 794.176 123.658C794.176 122.746 796.151 120.315 798.43 118.037L802.683 113.935L821.521 132.924L840.51 151.914L859.5 132.924L878.642 113.935L883.047 118.492L887.453 123.05L878.793 131.861C874.084 136.722 870.134 141.28 870.134 142.039C870.134 142.951 876.363 149.787 883.807 157.231L897.479 170.904L902.492 165.89L907.354 160.877L897.631 151.762L887.908 142.647L892.618 137.786L897.479 132.924L907.05 142.495L916.469 151.914L925.888 142.495L935.306 133.076L940.016 137.482L944.573 141.888L926.343 160.269C916.317 170.296 908.113 179.259 908.113 180.019C908.113 180.93 914.342 187.766 921.786 195.21L935.458 208.883L940.32 203.87L945.333 199.008L935.762 189.437L926.343 179.867L930.901 175.461L935.458 171.056L945.029 180.474L954.448 189.893L968.88 175.461L983.16 161.029L977.995 156.623L972.678 152.066L963.259 161.485L953.688 170.752L949.89 167.106C947.764 165.131 946.093 162.852 946.093 161.941C946.093 161.029 949.89 156.472 954.752 151.61L963.259 142.951L954.752 133.684C949.89 128.519 946.093 123.809 946.093 123.202C946.093 122.594 948.067 120.315 950.346 118.037L954.6 113.935L973.438 132.924L992.427 151.914L1011.42 132.924L1030.56 113.935L1034.96 118.492L1039.37 123.05L1030.71 131.861C1026 136.722 1022.05 141.28 1022.05 142.039C1022.05 142.951 1028.13 149.787 1035.72 157.231L1049.4 170.752L1053.95 166.346L1058.51 161.941L1049.09 152.37L1039.52 142.799L1044.53 137.938L1049.4 132.924L1058.97 142.495L1068.39 151.914L1077.8 142.495L1087.22 133.076L1091.93 137.482L1096.49 141.888L1078.26 160.269C1068.23 170.296 1060.03 179.259 1060.03 180.019C1060.03 180.93 1066.26 187.766 1073.7 195.21L1087.38 208.883L1092.24 203.87L1097.25 199.008L1087.68 189.437L1078.26 179.867L1082.82 175.461L1087.38 171.056L1096.95 180.474L1106.36 189.893L1120.49 175.765L1134.47 161.789L1129.61 156.775L1124.59 151.914L1115.48 161.029L1106.21 170.144L1101.81 165.587L1097.4 161.029L1106.36 151.914L1115.33 142.951L1112.29 139.457C1110.77 137.634 1106.82 133.228 1103.78 129.886C1100.59 126.544 1098.01 123.354 1098.01 122.898C1098.01 122.442 1099.98 120.315 1102.26 118.037L1106.52 113.935L1125.35 132.924L1144.34 151.914L1163.33 132.924L1182.47 113.935L1186.88 118.492L1191.29 123.05L1182.63 131.861C1177.92 136.722 1173.97 141.28 1173.97 142.039C1173.97 142.951 1180.04 149.787 1187.64 157.231L1201.31 170.752L1205.72 166.498L1210.28 162.092L1201.16 152.218L1191.89 142.343L1196.6 137.634L1201.31 132.924L1210.88 142.495L1220.3 151.914L1229.72 142.495L1239.14 133.076L1243.85 137.482L1248.41 141.888L1230.18 160.269C1220.15 170.296 1211.95 179.259 1211.95 180.019C1211.95 180.93 1218.18 187.766 1225.62 195.21L1239.29 208.883L1244.3 203.87L1249.17 198.856L1239.29 189.741L1229.57 180.778L1234.43 175.917L1239.29 170.904L1248.86 180.474L1258.28 189.893L1272.26 175.765L1286.23 161.789L1281.68 156.623L1276.97 151.61L1267.55 160.877L1258.13 170.144L1253.72 165.587L1249.32 161.029L1257.98 152.218C1262.69 147.357 1266.64 142.799 1266.64 142.039C1266.64 141.28 1262.69 136.722 1257.98 131.861L1249.32 123.05L1253.72 118.492L1258.28 113.935L1277.27 132.924L1296.26 151.914L1315.25 132.924L1334.39 113.935L1338.8 118.492L1343.2 123.05L1334.54 131.861C1329.83 136.722 1325.88 141.28 1325.88 142.039C1325.88 142.951 1332.11 149.787 1339.56 157.231L1353.23 170.904L1357.79 166.194L1362.5 161.637L1353.38 151.61L1344.27 141.736L1348.82 137.33L1353.23 133.076L1362.8 142.495L1372.22 151.914L1381.64 142.495L1391.06 133.076L1395.77 137.482L1400.32 141.888L1382.09 160.269C1372.07 170.296 1363.86 179.259 1363.86 180.019C1363.86 180.93 1370.09 187.766 1377.54 195.21L1391.21 208.883L1395.92 204.021L1400.78 199.312L1391.06 190.197L1381.33 180.93L1386.2 175.917L1391.21 170.904L1400.78 180.474L1410.2 189.893L1424.63 175.461L1439.06 161.029L1434.05 156.168L1429.19 151.154L1419.62 160.725L1410.05 170.144L1405.64 165.587L1401.23 161.029L1409.89 152.218C1414.6 147.357 1418.55 142.799 1418.55 142.039C1418.55 141.28 1414.6 136.722 1409.89 131.861L1401.23 123.05L1405.64 118.492L1410.2 113.935L1429.19 132.924L1448.18 151.914L1467.17 132.924L1486.31 113.935L1490.71 118.492L1495.12 123.05L1486.46 131.861C1481.75 136.722 1477.8 141.28 1477.8 142.039C1477.8 142.951 1484.03 149.787 1491.47 157.231L1505.15 170.904L1510.01 165.89L1515.02 161.029L1505.45 151.458L1496.03 141.888L1500.59 137.482L1505.15 133.076L1514.72 142.495L1524.14 151.914L1533.55 142.495L1542.97 133.076L1547.68 137.482L1552.24 141.888L1534.01 160.269C1523.98 170.296 1515.78 179.259 1515.78 180.019C1515.78 180.93 1521.86 187.766 1529.45 195.21L1543.13 208.731L1547.68 204.325L1552.24 199.92L1542.82 190.349L1533.25 180.778L1538.26 175.917L1543.13 170.904L1552.7 180.474L1562.11 189.893L1576.55 175.461L1590.98 161.029L1585.97 156.168L1581.1 151.154L1571.23 161.029L1561.36 170.752L1557.56 167.106C1555.43 165.131 1553.76 162.852 1553.76 161.789C1553.76 160.877 1557.56 156.472 1562.11 151.914C1566.67 147.357 1570.47 143.103 1570.47 142.343C1570.47 141.584 1566.67 137.634 1562.11 133.38C1557.56 129.278 1553.76 125.025 1553.76 123.961C1553.76 122.898 1555.73 120.315 1558.01 118.037L1562.27 113.935L1581.1 132.924L1600.09 151.914L1619.08 132.924L1638.22 113.935L1642.63 118.492L1647.04 123.05L1638.38 131.861C1633.67 136.722 1629.72 141.28 1629.72 142.039C1629.72 142.951 1635.95 149.787 1643.39 157.231L1657.06 170.904L1662.08 165.89L1666.94 160.877L1657.21 151.762L1647.49 142.647L1652.2 137.786L1657.06 132.924L1666.63 142.495L1676.05 151.914L1685.47 142.495L1694.89 133.076L1699.6 137.482L1704.16 141.888L1685.93 160.269C1675.9 170.296 1667.7 179.259 1667.7 180.019C1667.7 180.93 1673.77 187.766 1681.37 195.21L1695.04 208.731L1699.45 204.477L1704 200.072L1694.89 190.197L1685.62 180.322L1690.33 175.613L1695.04 170.904L1704.61 180.474L1714.03 189.893L1728.46 175.309L1742.9 160.877L1737.73 156.168L1732.72 151.61L1722.99 161.181L1713.27 170.752L1709.47 167.106C1707.35 165.131 1705.68 162.852 1705.68 161.941C1705.68 161.029 1709.63 156.472 1714.34 151.61L1722.99 142.799L1714.34 133.988C1709.63 129.127 1705.68 124.569 1705.68 123.658C1705.68 122.746 1707.65 120.315 1709.93 118.037L1714.18 113.935L1733.02 132.924L1752.01 151.914L1761.43 142.495L1771 133.076V123.202V113.327L1761.43 122.746L1751.86 132.165L1747.45 127.607L1743.05 123.05L1751.71 114.239C1756.42 109.377 1760.37 104.82 1760.37 103.908C1760.37 102.997 1754.14 96.3126 1746.39 89.0206L1732.41 75.9557L1727.86 80.5132L1723.15 85.0707L1732.72 94.6415L1742.14 104.06L1737.27 109.074L1732.26 113.935L1722.84 104.516L1713.27 95.0972L1703.7 104.516L1694.28 113.935L1690.18 108.922L1686.23 104.06L1704.61 85.5265L1723.15 66.8407L1708.71 52.4086L1694.28 37.9766L1689.72 42.5341L1685.17 47.0916L1694.74 56.6623L1704.16 66.2331L1699.14 71.0944L1694.13 75.9557L1686.23 66.8407C1681.82 61.8275 1677.27 57.7257 1676.36 57.7257C1675.29 57.7257 1668.3 63.9543 1660.86 71.3982L1647.19 85.0707L1652.2 89.9321L1657.06 94.9453L1666.63 85.3746L1676.2 75.9557L1680.61 80.5132L1685.02 85.0707L1676.36 93.8819C1671.65 98.7432 1667.7 103.301 1667.7 104.06C1667.7 104.82 1671.65 109.377 1676.36 114.239L1685.02 123.05L1680.61 127.607L1676.05 132.013L1663.14 119.556C1656 112.568 1647.34 104.212 1643.69 101.022L1637.16 95.2491L1618.48 113.783L1599.94 132.165L1595.54 127.607L1591.13 123.05L1599.79 114.239C1604.5 109.377 1608.45 104.82 1608.45 104.06C1608.45 103.149 1602.22 96.3126 1594.78 88.8686L1581.1 75.1961L1576.24 80.2094L1571.23 85.0707L1580.8 94.6415L1590.22 104.212L1585.66 108.618L1581.1 113.023L1576.24 108.466C1573.51 106.035 1570.77 103.301 1570.17 102.389C1569.56 101.478 1567.28 99.5028 1565 97.9836L1561.05 95.4011L1551.63 104.668L1542.21 113.935L1537.81 109.377L1533.4 104.82L1551.94 86.1341C1562.11 75.9557 1570.47 66.9926 1570.47 66.385C1570.47 65.7773 1564.09 59.093 1556.49 51.6491L1542.37 38.1285L1537.81 42.686L1533.25 47.0916L1542.82 56.6623L1552.24 66.2331L1547.23 71.0944L1542.21 75.9557L1533.4 66.8407C1528.54 61.8275 1524.14 57.7257 1523.53 57.7257C1523.07 57.7257 1516.39 63.9543 1508.94 71.3982L1495.27 85.0707L1500.28 89.9321L1505.15 94.9453L1514.72 85.3746L1524.29 75.9557L1528.69 80.5132L1533.1 85.0707L1524.44 93.8819C1519.73 98.7432 1515.78 103.301 1515.78 104.06C1515.78 104.82 1519.73 109.377 1524.44 114.239L1533.1 123.05L1528.69 127.607L1524.29 132.165L1505.91 113.935C1495.88 103.908 1486.92 95.7049 1486.16 95.7049C1485.4 95.7049 1476.28 104.06 1466.1 114.239L1447.57 132.773L1443.62 129.127C1441.49 127.152 1439.82 124.873 1439.82 123.961C1439.82 123.05 1443.77 118.492 1448.48 113.631L1457.14 104.972L1443.62 90.8436C1436.02 83.0958 1429.64 76.5634 1429.19 76.2596C1428.73 76.1076 1426.3 77.9306 1423.87 80.5132L1419.46 85.0707L1428.88 94.6415L1438.3 104.212L1433.75 108.618L1429.19 113.023L1420.38 104.364C1415.52 99.6547 1410.96 95.7049 1410.2 95.7049C1409.44 95.7049 1404.58 99.8066 1399.56 104.82L1390.3 113.935L1385.89 109.377L1381.49 104.82L1400.02 86.1341C1410.2 75.9557 1418.55 66.8407 1418.55 65.9292C1418.55 65.0177 1412.32 58.3334 1404.58 51.0414L1390.6 37.9766L1386.04 42.5341L1381.33 47.0916L1390.9 56.6623L1400.32 66.0811L1395.46 71.0944L1390.45 75.9557L1381.03 66.5369L1371.46 56.9661L1357.48 71.0944L1343.35 85.0707L1348.37 89.9321L1353.23 94.9453L1362.8 85.3746L1372.37 75.9557L1376.78 80.5132L1381.18 85.0707L1372.52 93.8819C1367.81 98.7432 1363.86 103.301 1363.86 104.06C1363.86 104.82 1367.81 109.377 1372.52 114.239L1381.18 123.05L1376.32 127.911L1371.46 132.773L1353.84 114.239C1344.11 104.06 1335.45 95.7049 1334.54 95.7049C1333.48 95.7049 1324.37 104.06 1314.19 114.239L1295.65 132.773L1291.7 129.127C1289.58 127.152 1287.91 124.873 1287.91 123.961C1287.91 123.05 1291.85 118.492 1296.56 113.631L1305.22 104.972L1291.7 90.8436C1284.11 83.0958 1277.73 76.5634 1277.27 76.2596C1276.82 76.1076 1274.38 77.9306 1271.95 80.5132L1267.55 85.0707L1276.97 94.6415L1286.39 104.212L1281.83 108.618L1277.27 113.023L1268.46 104.364C1263.6 99.6547 1259.04 95.7049 1258.13 95.7049C1257.37 95.7049 1252.66 99.8066 1247.8 104.668L1238.84 113.631L1234.13 109.225L1229.42 104.82L1248.1 86.1341C1258.28 75.9557 1266.64 66.8407 1266.64 66.0811C1266.64 65.1696 1260.41 58.3334 1252.96 50.8895L1239.29 37.217L1234.43 42.2302L1229.42 47.0916L1238.99 56.6623L1248.41 66.0811L1243.7 70.9425L1238.99 75.6519L1229.87 66.9926C1224.86 62.2832 1220.3 58.3334 1219.69 58.0296C1219.24 57.8776 1212.55 63.8024 1205.11 71.3982L1191.44 85.0707L1196.45 89.9321L1201.31 94.9453L1210.88 85.3746L1220.45 75.9557L1224.86 80.5132L1229.27 85.0707L1220.61 93.8819C1215.9 98.7432 1211.95 103.301 1211.95 104.06C1211.95 104.82 1215.9 109.377 1220.61 114.239L1229.27 123.05L1224.25 128.063L1219.39 132.924L1201.31 114.239C1191.44 104.06 1182.78 95.7049 1182.17 95.7049C1181.41 95.7049 1172.45 104.06 1162.27 114.239L1143.74 132.773L1139.79 129.127C1137.66 127.152 1135.99 124.873 1135.99 123.809C1135.99 122.898 1139.79 118.492 1144.34 113.935C1149.05 109.377 1152.55 104.82 1152.4 103.908C1152.09 102.997 1145.71 96.3126 1138.12 89.1725L1124.29 76.1076L1120.04 80.6651L1115.63 85.0707L1125.05 94.6415L1134.47 104.212L1129.46 109.074L1124.29 114.087L1115.78 104.82C1111.07 99.8066 1106.82 95.7049 1106.06 95.7049C1105.45 95.7049 1101.05 99.6547 1096.19 104.364L1087.38 113.023L1082.82 108.618L1078.26 104.212L1096.64 85.6784L1115.18 66.9926L1106.06 56.6623C1100.9 51.0414 1094.67 44.3571 1092.08 41.7745L1087.38 37.3689L1082.51 42.2302L1077.5 47.0916L1087.07 56.6623L1096.49 66.2331L1091.93 70.6386L1087.38 75.0442L1078.56 66.385C1073.7 61.6756 1069.15 57.7257 1068.39 57.7257C1067.47 57.7257 1060.64 63.9543 1053.19 71.3982L1039.52 85.0707L1044.53 89.9321L1049.4 94.9453L1058.97 85.3746L1068.54 75.9557L1072.94 80.5132L1077.35 85.0707L1068.69 93.8819C1063.98 98.7432 1060.03 103.301 1060.03 104.06C1060.03 104.82 1063.98 109.377 1068.69 114.239L1077.35 123.05L1072.64 127.911C1067.78 132.621 1067.63 132.773 1065.04 129.734C1063.52 128.215 1054.86 119.708 1045.9 110.897L1029.65 95.0972L1010.96 113.631L992.275 132.165L987.87 127.607L983.464 123.05L992.123 114.239C996.833 109.377 1000.78 104.82 1000.78 103.908C1000.78 102.997 994.554 96.3126 986.806 89.0206L972.83 75.9557L968.272 80.5132L963.563 85.0707L973.134 94.6415L982.553 104.06L977.691 109.074L972.678 113.935L963.259 104.516L953.688 95.0972L944.573 104.06L935.458 113.023L930.901 108.618L926.343 104.212L944.877 85.5265L963.411 66.9926L949.89 52.8644C942.447 45.1166 935.914 38.5842 935.458 38.2804C935.003 38.1285 932.572 39.9515 930.141 42.5341L925.736 47.0916L935.155 56.6623L944.573 66.2331L940.016 70.6386L935.458 75.0442L926.647 66.385C921.786 61.6756 917.228 57.7257 916.469 57.7257C915.557 57.7257 908.721 63.9543 901.277 71.3982L887.605 85.0707L892.618 89.9321L897.479 94.9453L907.05 85.3746L916.621 75.9557L921.026 80.5132L925.432 85.0707L916.773 93.8819C912.063 98.7432 908.113 103.301 908.113 104.06C908.113 104.82 912.063 109.377 916.773 114.239L925.432 123.05L921.026 127.607L916.469 132.013L903.556 119.556C896.416 112.568 887.757 104.212 884.111 101.022L877.578 95.2491L858.892 113.783L840.359 132.165L835.953 127.607L831.547 123.05L840.207 114.239C844.916 109.377 848.866 104.82 848.866 104.06C848.866 103.149 842.637 96.3126 835.193 88.8686L821.521 75.1961L816.66 80.2094L811.646 85.0707L821.217 94.6415L830.636 104.212L825.471 109.225C822.736 111.96 820.154 113.631 819.85 112.871C819.546 112.264 815.292 107.858 810.431 103.453L801.62 95.0972L792.201 104.516L782.782 113.935L778.68 108.922L774.731 104.06L793.112 85.5265L811.646 66.8407L797.214 52.4086L782.782 37.9766L778.225 42.5341L773.667 47.0916L783.238 56.6623L792.657 66.2331L787.643 71.0944L782.63 75.9557L774.731 66.8407C770.325 61.8275 765.767 57.7257 764.856 57.7257C763.793 57.7257 756.804 63.9543 749.36 71.3982L735.688 85.0707L740.701 89.9321L745.563 94.9453L755.133 85.3746L764.704 75.9557L769.11 80.5132L773.515 85.0707L764.856 93.8819C760.147 98.7432 756.197 103.301 756.197 104.06C756.197 104.82 760.147 109.377 764.856 114.239L773.515 123.05L769.11 127.607L764.552 132.013L751.639 119.556C744.499 112.568 735.84 104.212 732.194 101.022L725.661 95.2491L706.976 113.783L688.442 132.165L684.036 127.607L679.631 123.05L688.29 114.239C692.999 109.377 696.949 104.82 696.949 104.06C696.949 103.149 690.721 96.3126 683.277 88.8686L669.604 75.1961L664.743 80.2094L659.73 85.0707L669.3 94.6415L678.719 104.212L674.162 108.618L669.604 113.023L660.793 104.364C655.932 99.6547 651.374 95.7049 650.615 95.7049C649.855 95.7049 644.994 99.8066 639.98 104.82L630.714 113.935L626.308 109.377L621.902 104.82L640.436 86.1341C650.615 75.9557 658.97 66.8407 658.97 65.9292C658.97 65.0177 652.741 58.3334 644.994 51.0414L631.017 37.9766L626.46 42.5341L621.75 47.0916L631.321 56.6623L640.74 66.2331L635.727 71.0944L630.714 75.9557L621.902 66.8407C617.041 61.8275 612.635 57.7257 612.028 57.7257C611.572 57.7257 604.888 63.9543 597.444 71.3982L583.771 85.0707L588.785 89.9321L593.646 94.9453L603.217 85.3746L612.787 75.9557L617.193 80.5132L621.599 85.0707L612.939 93.8819C608.23 98.7432 604.28 103.301 604.28 104.06C604.28 104.82 608.23 109.377 612.939 114.239L621.599 123.05L617.193 127.607L612.787 132.165L594.405 113.935C584.379 103.908 575.416 95.7049 574.656 95.7049C573.745 95.7049 564.934 103.908 554.907 113.935C544.881 123.961 536.373 132.165 535.918 132.165C535.31 132.165 533.335 130.038 531.512 127.455L528.018 122.746L536.829 113.783L545.64 104.82L541.842 100.718C539.867 98.4394 533.639 91.7551 528.018 85.9822L517.839 75.1961L512.826 80.0575L507.813 85.0707L517.384 94.6415L526.803 104.212L522.245 108.618L517.688 113.023L508.876 104.364C504.015 99.6547 499.458 95.7049 498.546 95.7049C497.786 95.7049 493.381 99.5028 488.823 104.06C484.266 108.618 480.164 112.416 479.708 112.416C479.253 112.416 476.974 110.745 474.543 108.618L469.986 104.668L488.52 86.1341C498.698 75.9557 507.053 66.8407 507.053 66.0811C507.053 65.1696 500.825 58.3334 493.381 50.8895L479.708 37.217L474.847 42.2302L469.834 47.0916L479.405 56.6623L488.823 66.0811L484.114 70.9425L479.405 75.6519L470.29 66.9926C465.276 62.2832 460.719 58.3334 460.111 58.0296C459.655 57.8776 452.971 63.8024 445.527 71.3982L431.855 85.0707L436.868 89.9321L441.729 94.9453L451.3 85.3746L460.871 75.9557L465.276 80.5132L469.682 85.0707L461.023 93.8819C456.313 98.7432 452.363 103.301 452.363 104.06C452.363 104.82 456.313 109.377 461.023 114.239L469.682 123.05L464.821 127.911L459.959 132.773L442.337 114.239C432.614 104.06 423.955 95.7049 423.043 95.7049C421.98 95.7049 412.865 104.06 402.687 114.239L384.153 132.773L380.203 129.127C378.076 127.152 376.405 124.873 376.405 123.809C376.405 122.898 380.203 118.492 384.76 113.935C389.318 109.377 393.116 105.124 393.116 104.516C393.116 103.908 386.887 97.0721 379.14 89.4763L365.315 75.8038L360.606 80.3613L355.896 85.0707L365.467 94.6415L374.886 104.212L370.328 108.618L365.771 113.023L356.96 104.364C352.098 99.6547 347.541 95.7049 346.781 95.7049C346.022 95.7049 341.464 99.6547 336.603 104.364L327.792 113.023L323.234 108.618L318.677 104.212L336.907 85.8303C346.933 75.8038 355.137 66.8407 355.137 66.0811C355.137 65.1696 348.908 58.3334 341.464 50.8895L327.792 37.217L322.93 42.2302L317.917 47.0916L327.488 56.6623L336.907 66.2331L332.349 70.6386L327.792 75.0442L318.981 66.385C314.119 61.6756 309.562 57.7257 308.802 57.7257C307.891 57.7257 301.054 63.9543 293.61 71.3982L279.938 85.0707L284.951 89.9321L289.813 94.9453L299.383 85.3746L308.954 75.9557L313.36 80.5132L317.765 85.0707L309.106 93.8819C304.397 98.7432 300.447 103.301 300.447 104.06C300.447 104.82 304.397 109.377 309.106 114.239L317.765 123.05L312.904 127.911L308.043 132.773L289.813 114.239C279.786 104.06 271.127 95.7049 270.519 95.7049C269.911 95.7049 261.1 103.908 251.074 113.935L232.692 132.317L228.59 128.215C226.311 125.936 224.488 123.658 224.488 123.202C224.488 122.594 228.286 118.492 232.844 113.935C237.401 109.377 241.199 104.972 241.199 103.908C241.199 102.997 234.971 96.3126 227.223 89.0206L213.247 75.9557L208.689 80.5132L203.98 85.0707L213.55 94.6415L222.969 104.212L217.956 109.074L212.791 114.087L204.283 104.82C199.574 99.8066 195.32 95.7049 194.561 95.7049C193.953 95.7049 189.548 99.6547 184.686 104.364L175.875 113.023L171.318 108.618L166.76 104.212L185.142 85.6784L203.676 66.9926L194.561 56.6623C189.396 51.0414 183.167 44.3571 180.584 41.7745L175.875 37.3689L171.014 42.2302L166 47.0916L175.571 56.6623L184.99 66.2331L180.433 70.6386L175.875 75.0442L167.064 66.385C162.203 61.6756 157.645 57.7257 156.885 57.7257C155.974 57.7257 149.138 63.9543 141.694 71.3982L128.021 85.0707L133.035 89.9321L137.896 94.9453L147.467 85.3746L157.037 75.9557L161.443 80.5132L165.849 85.0707L157.189 93.8819C152.48 98.7432 148.53 103.301 148.53 104.06C148.53 104.82 152.48 109.377 157.189 114.239L165.849 123.05L160.987 127.911L156.126 132.773L137.896 114.239C127.869 104.06 119.21 95.7049 118.602 95.7049C117.995 95.7049 109.184 103.908 99.1571 113.935L80.7752 132.165L76.3696 127.607L71.964 123.05L80.6233 114.239C85.3327 109.377 89.2825 104.82 89.2825 104.06C89.2825 103.149 83.0539 96.3126 75.61 88.8686L61.9375 75.1961L57.0762 80.2094L52.0629 85.0707L61.6337 94.6415L71.0525 104.212L65.8873 109.225C63.1528 111.96 60.5703 113.631 60.2664 112.871C59.9626 112.264 55.7089 108.01 50.8476 103.453L42.0364 95.0972L33.0733 104.06L23.9583 113.023L19.4008 108.618L14.8433 104.212L33.3772 85.5265L51.911 66.9926L38.3904 52.8644C30.9465 45.1166 24.4141 38.5842 23.9583 38.2804C23.5026 38.1285 21.0719 39.9515 18.6413 42.5341Z" fill="url(#paint12_linear_178_2026)"></path><path d="M94.5989 80.5132L90.1934 85.0707L95.0547 90.084L99.916 94.9453L104.777 90.084L109.639 85.0707L105.233 80.5132C102.802 78.0826 100.372 75.9557 99.916 75.9557C99.4603 75.9557 97.0296 78.0826 94.5989 80.5132Z" fill="url(#paint13_linear_178_2026)"></path><path d="M246.517 80.5132L242.111 85.0707L246.973 90.084L251.834 94.9453L256.695 90.084L261.557 85.0707L257.151 80.5132C254.72 78.0826 252.29 75.9557 251.834 75.9557C251.378 75.9557 248.948 78.0826 246.517 80.5132Z" fill="url(#paint14_linear_178_2026)"></path><path d="M398.433 80.5132L394.027 85.0707L398.889 90.084L403.75 94.9453L408.611 90.084L413.473 85.0707L409.067 80.5132C406.636 78.0826 404.206 75.9557 403.75 75.9557C403.294 75.9557 400.864 78.0826 398.433 80.5132Z" fill="url(#paint15_linear_178_2026)"></path><path d="M550.197 80.6651L545.943 85.0707L550.805 90.084L555.666 94.9453L560.527 90.084C565.389 85.2226 565.389 85.2226 562.502 81.8805C557.033 75.9557 554.906 75.6519 550.197 80.6651Z" fill="url(#paint16_linear_178_2026)"></path><path d="M702.267 80.5132L697.861 85.0707L702.723 90.084L707.584 94.9453L712.141 90.2359L716.699 85.6784L711.686 80.8171L706.672 75.9557L702.267 80.5132Z" fill="url(#paint17_linear_178_2026)"></path><path d="M854.183 80.5132L849.777 85.0707L854.639 90.084L859.5 94.9453L864.058 90.3878L868.615 85.8303L864.665 80.8171C862.538 78.2345 860.26 75.9557 859.652 75.9557C859.044 75.9557 856.614 78.0826 854.183 80.5132Z" fill="url(#paint18_linear_178_2026)"></path><path d="M1006.1 80.5132L1001.69 85.0707L1006.55 90.084L1011.42 94.9453L1016.28 90.084L1021.14 85.0707L1016.73 80.5132C1014.3 78.0826 1011.87 75.9557 1011.42 75.9557C1010.96 75.9557 1008.53 78.0826 1006.1 80.5132Z" fill="url(#paint19_linear_178_2026)"></path><path d="M1158.02 80.5132L1153.61 85.0707L1158.47 90.084L1163.33 94.9453L1168.19 90.084L1173.06 85.0707L1168.65 80.5132C1166.22 78.0826 1163.79 75.9557 1163.33 75.9557C1162.88 75.9557 1160.45 78.0826 1158.02 80.5132Z" fill="url(#paint20_linear_178_2026)"></path><path d="M1309.78 80.6686L1305.53 85.0742L1310.39 89.9355L1315.25 94.7969L1319.81 90.3913C1322.24 87.9606 1324.37 85.6819 1324.37 85.2261C1324.37 84.7704 1322.09 82.4916 1319.2 80.2129L1314.19 76.1111L1309.78 80.6686Z" fill="url(#paint21_linear_178_2026)"></path><path d="M1461.85 80.5132L1457.44 85.0707L1462.3 90.084L1467.17 94.9453L1471.72 90.2359L1476.28 85.6784L1471.27 80.8171L1466.25 75.9557L1461.85 80.5132Z" fill="url(#paint22_linear_178_2026)"></path><path d="M1613.77 80.5132L1609.36 85.0707L1614.22 90.084L1619.08 94.9453L1623.64 90.2359L1628.2 85.6784L1623.18 80.8171L1618.17 75.9557L1613.77 80.5132Z" fill="url(#paint23_linear_178_2026)"></path><path d="M85.788 165.285C78.496 172.577 72.5713 179.262 72.5713 180.021C72.5713 180.781 76.5211 185.338 81.2305 190.2L89.8898 199.011L85.4842 203.568L81.0786 208.126L71.5078 198.707L61.9371 189.136L57.0758 194.149L52.0625 199.011L66.4946 213.443L80.9267 227.875L90.3455 218.456L99.9163 209.037L109.487 218.456L118.906 227.875L133.338 213.291L147.77 198.859L142.605 194.149L137.592 189.592L128.173 198.859L118.754 208.126L114.348 203.568L109.943 199.011L118.906 189.896L127.869 180.781L122.704 175.16C111.462 162.855 100.676 151.917 99.9163 151.917C99.4605 151.917 93.08 157.841 85.788 165.285ZM104.93 175.919L109.031 180.173L104.474 184.579L99.9163 188.984L95.3588 184.579L90.8013 180.173L94.903 175.919C97.1818 173.641 99.4605 171.666 99.9163 171.666C100.372 171.666 102.651 173.641 104.93 175.919Z" fill="url(#paint24_linear_178_2026)"></path><path d="M237.705 165.285C230.413 172.577 224.488 179.262 224.488 180.021C224.488 180.781 228.438 185.338 233.147 190.2L241.807 199.011L237.401 203.568L232.844 207.974L222.969 199.011L213.094 189.896L208.537 194.453L203.979 199.011L218.412 213.443L232.844 227.875L242.262 218.456L251.833 209.037L261.404 218.456L270.823 227.875L284.951 213.747L298.927 199.77L294.066 194.757L289.053 189.896L279.938 199.011L270.671 208.126L266.265 203.568L261.86 199.011L270.519 190.2C275.228 185.338 279.178 180.781 279.178 180.021C279.178 178.502 253.352 151.917 251.833 151.917C251.377 151.917 244.997 157.841 237.705 165.285ZM256.846 175.919L260.948 180.173L256.391 184.579L251.833 188.984L247.276 184.579L242.718 180.173L246.82 175.919C249.099 173.641 251.377 171.666 251.833 171.666C252.289 171.666 254.568 173.641 256.846 175.919Z" fill="url(#paint25_linear_178_2026)"></path><path d="M389.622 165.285C382.33 172.577 376.405 179.262 376.405 180.021C376.405 180.781 380.355 185.338 385.064 190.2L393.724 199.011L388.71 204.024L383.849 208.885L374.734 199.163L365.619 189.288L360.758 194.149L355.896 199.011L370.329 213.443L384.761 227.875L394.179 218.456L403.75 209.037L413.321 218.456L422.74 227.875L436.868 213.747L450.844 199.618L446.439 194.453L441.881 189.136L432.311 198.707L422.588 208.126L418.182 203.568L413.777 199.011L422.436 190.2C427.145 185.338 431.095 180.781 431.095 180.021C431.095 178.502 405.269 151.917 403.75 151.917C403.294 151.917 396.914 157.841 389.622 165.285ZM408.763 175.919L412.865 180.173L408.308 184.579L403.75 188.984L399.193 184.579L394.635 180.173L398.737 175.919C401.016 173.641 403.294 171.666 403.75 171.666C404.206 171.666 406.485 173.641 408.763 175.919Z" fill="url(#paint26_linear_178_2026)"></path><path d="M541.538 165.285C534.246 172.577 528.321 179.262 528.321 180.021C528.321 180.781 532.271 185.338 536.981 190.2L545.64 199.011L540.93 203.872L536.069 208.733L526.954 198.859L517.839 189.136L512.826 193.998L507.812 199.011L522.245 213.443L536.677 227.875L546.096 218.456L555.666 209.037L565.237 218.456L574.656 227.875L589.088 213.443L603.52 199.011L598.507 194.149L593.645 189.136L584.075 198.707L574.504 208.126L570.098 203.568L565.693 199.011L574.352 190.2C579.061 185.338 583.011 180.781 583.011 179.869C583.011 178.35 567.668 163.158 558.553 155.411L554.603 152.069L541.538 165.285ZM560.68 175.919L564.781 180.173L559.768 185.034L554.755 189.896L550.349 185.338L545.944 180.781L550.349 176.223C552.78 173.641 555.211 171.666 555.666 171.666C556.122 171.666 558.401 173.641 560.68 175.919Z" fill="url(#paint27_linear_178_2026)"></path><path d="M693.456 165.285C686.164 172.577 680.239 179.262 680.239 180.021C680.239 180.781 684.189 185.338 688.898 190.2L697.558 199.011L693.152 203.568L688.747 208.126L679.176 198.707L669.605 189.136L664.744 194.149L659.73 199.011L674.163 213.443L688.595 227.875L698.013 218.456L707.584 209.037L717.155 218.456L726.574 227.875L741.006 213.443L755.438 199.011L750.425 194.149L745.563 189.136L735.689 199.011L725.814 208.733L722.016 205.087C719.889 203.113 718.218 200.834 718.218 199.77C718.218 198.859 722.016 194.453 726.574 189.896C731.131 185.338 734.929 180.933 734.929 180.021C734.929 179.11 733.41 177.135 731.587 175.616C729.612 174.096 723.232 168.172 717.459 162.399L706.825 151.917L693.456 165.285ZM712.597 175.919L716.699 180.173L711.534 185.186L706.521 190.048L702.419 185.186L698.317 180.325L702.419 176.071C704.698 173.641 707.128 171.666 707.584 171.666C708.04 171.666 710.319 173.641 712.597 175.919Z" fill="url(#paint28_linear_178_2026)"></path><path d="M845.372 165.285C838.08 172.577 832.155 179.262 832.155 180.021C832.155 180.781 836.105 185.338 840.814 190.2L849.474 199.011L845.068 203.568L840.663 208.126L831.092 198.707L821.521 189.136L816.66 194.149L811.646 199.011L826.079 213.443L840.511 227.875L849.929 218.456L859.5 209.037L869.071 218.456L878.49 227.875L892.922 213.443L907.354 199.011L902.341 194.149L897.479 189.136L887.605 199.011L877.73 208.733L873.932 205.087C871.805 203.113 870.134 200.834 870.134 199.922C870.134 199.011 874.084 194.453 878.794 189.592L887.453 180.933L873.932 166.804C866.336 159.057 859.956 152.524 859.5 152.22C859.044 152.069 852.664 157.841 845.372 165.285ZM864.513 175.919L868.615 180.173L864.058 184.579L859.5 188.984L854.943 184.579L850.385 180.173L854.487 175.919C856.766 173.641 859.044 171.666 859.5 171.666C859.956 171.666 862.235 173.641 864.513 175.919Z" fill="url(#paint29_linear_178_2026)"></path><path d="M997.288 165.285C989.996 172.577 984.071 179.262 984.071 180.021C984.071 180.781 988.021 185.338 992.731 190.2L1001.39 199.011L996.984 203.568L992.427 207.974L982.552 199.011L972.678 189.896L968.12 194.453L963.562 199.011L977.995 213.443L992.427 227.875L1001.85 218.456L1011.42 209.037L1020.99 218.456L1030.41 227.875L1044.53 213.747L1058.51 199.618L1053.5 194.757L1048.48 189.896L1039.52 199.011C1034.51 204.024 1030.1 208.126 1029.65 208.126C1029.04 208.126 1027.06 205.999 1025.24 203.416L1021.75 198.707L1030.56 189.744L1039.37 180.781L1034.2 175.16C1022.96 162.855 1012.18 151.917 1011.42 151.917C1010.96 151.917 1004.58 157.841 997.288 165.285ZM1016.43 175.919L1020.53 180.173L1015.97 184.579L1011.42 188.984L1006.86 184.579L1002.3 180.173L1006.4 175.919C1008.68 173.641 1010.96 171.666 1011.42 171.666C1011.87 171.666 1014.15 173.641 1016.43 175.919Z" fill="url(#paint30_linear_178_2026)"></path><path d="M1149.2 165.285C1141.91 172.577 1135.99 179.262 1135.99 180.021C1135.99 180.781 1139.94 185.338 1144.65 190.2L1153.31 199.011L1148.44 203.872L1143.58 208.885L1134.01 199.315L1124.44 189.896L1120.04 194.453L1115.63 199.011L1129.91 213.443L1144.34 227.875L1153.76 218.456L1163.33 209.037L1172.9 218.456L1182.32 227.875L1196.45 213.747L1210.43 199.77L1205.57 194.757L1200.55 189.896L1191.44 199.011L1182.17 208.126L1177.76 203.568L1173.36 199.011L1182.02 190.2C1186.73 185.338 1190.68 180.781 1190.68 180.021C1190.68 178.502 1164.85 151.917 1163.33 151.917C1162.88 151.917 1156.5 157.841 1149.2 165.285ZM1168.35 175.919L1172.45 180.173L1167.89 184.579L1163.33 188.984L1158.78 184.579L1154.22 180.173L1158.32 175.919C1160.6 173.641 1162.88 171.666 1163.33 171.666C1163.79 171.666 1166.07 173.641 1168.35 175.919Z" fill="url(#paint31_linear_178_2026)"></path><path d="M1301.12 165.285C1293.83 172.577 1287.91 179.262 1287.91 180.021C1287.91 180.781 1291.86 185.338 1296.56 190.2L1305.22 199.011L1300.21 204.024L1295.35 208.885L1286.23 199.163L1277.12 189.288L1272.26 194.149L1267.4 199.011L1281.83 213.443L1296.26 227.875L1305.68 218.456L1315.25 209.037L1324.82 218.456L1334.24 227.875L1348.37 213.747L1362.34 199.618L1357.94 194.453L1353.38 189.136L1343.81 198.707L1334.09 208.126L1329.68 203.568L1325.28 199.011L1333.94 190.2C1338.65 185.338 1342.6 180.781 1342.6 179.869C1342.6 178.35 1327.25 163.158 1318.14 155.411L1314.19 152.069L1301.12 165.285ZM1320.26 175.919L1324.37 180.173L1319.35 185.034L1314.34 189.896L1309.93 185.338L1305.53 180.781L1309.93 176.223C1312.36 173.641 1314.79 171.666 1315.25 171.666C1315.71 171.666 1317.98 173.641 1320.26 175.919Z" fill="url(#paint32_linear_178_2026)"></path><path d="M1453.04 165.285C1445.75 172.577 1439.82 179.262 1439.82 180.021C1439.82 180.781 1443.77 185.338 1448.48 190.2L1457.14 199.011L1452.43 203.872L1447.57 208.733L1438.45 198.859L1429.34 189.136L1424.33 193.998L1419.31 199.011L1433.74 213.443L1448.18 227.875L1457.6 218.456L1467.17 209.037L1476.74 218.456L1486.16 227.875L1500.59 213.443L1515.02 199.011L1510.01 194.149L1505.15 189.136L1495.73 198.555L1486.16 207.974L1482.05 204.936C1479.62 203.113 1477.8 200.986 1477.8 199.922C1477.8 199.011 1481.6 194.453 1486.16 189.896C1490.71 185.338 1494.51 180.933 1494.51 180.021C1494.51 179.11 1492.99 177.135 1491.17 175.616C1489.19 174.096 1482.81 168.172 1477.04 162.399L1466.41 151.917L1453.04 165.285ZM1472.18 175.919L1476.28 180.173L1471.27 185.034L1466.25 189.896L1461.85 185.338L1457.44 180.781L1461.85 176.223C1464.28 173.641 1466.71 171.666 1467.17 171.666C1467.62 171.666 1469.9 173.641 1472.18 175.919Z" fill="url(#paint33_linear_178_2026)"></path><path d="M1604.96 165.285C1597.66 172.577 1591.74 179.262 1591.74 180.021C1591.74 180.781 1595.69 185.338 1600.4 190.2L1609.06 199.011L1604.65 203.568L1600.25 208.126L1590.68 198.707L1581.11 189.136L1576.24 194.149L1571.23 199.011L1585.66 213.443L1600.09 227.875L1609.51 218.456L1619.08 209.037L1628.65 218.456L1638.07 227.875L1652.51 213.443L1666.94 199.011L1661.92 194.149L1657.06 189.136L1647.19 199.011L1637.31 208.733L1633.52 205.087C1631.39 203.113 1629.72 200.834 1629.72 199.922C1629.72 199.011 1633.67 194.453 1638.38 189.592L1647.19 180.781L1632.76 166.349L1618.32 151.917L1604.96 165.285ZM1624.1 175.919L1628.2 180.173L1623.03 185.186L1618.02 190.048L1613.92 185.186L1609.82 180.325L1613.92 176.071C1616.2 173.641 1618.63 171.666 1619.08 171.666C1619.54 171.666 1621.82 173.641 1624.1 175.919Z" fill="url(#paint34_linear_178_2026)"></path><path d="M1757.02 165.133C1749.58 172.577 1743.66 179.262 1743.66 180.021C1743.66 180.781 1747.61 185.338 1752.31 190.2L1760.97 199.011L1756.57 203.568L1752.01 207.974L1742.14 199.011L1732.26 189.896L1727.7 194.453L1723.15 199.011L1737.58 213.443L1752.01 227.875L1761.43 218.456L1771 209.037V199.011C1771 189.744 1770.54 188.529 1766.44 184.579L1761.89 180.173L1766.44 175.464C1770.85 170.906 1771.15 169.843 1770.7 161.184L1770.24 151.765L1757.02 165.133Z" fill="url(#paint35_linear_178_2026)"></path></g><defs><linearGradient id="paint0_linear_178_2026" x1="55.0401" y1="72.9859" x2="151.865" y2="13.4544" gradientUnits="userSpaceOnUse"><stop stop-color="#D6B665"></stop><stop offset="1" stop-color="#AF9247"></stop></linearGradient><linearGradient id="paint1_linear_178_2026" x1="207.08" y1="72.9859" x2="303.484" y2="14.2776" gradientUnits="userSpaceOnUse"><stop stop-color="#D6B665"></stop><stop offset="1" stop-color="#AF9247"></stop></linearGradient><linearGradient id="paint2_linear_178_2026" x1="358.85" y1="72.9859" x2="455.326" y2="14.1404" gradientUnits="userSpaceOnUse"><stop stop-color="#D6B665"></stop><stop offset="1" stop-color="#AF9247"></stop></linearGradient><linearGradient id="paint3_linear_178_2026" x1="510.79" y1="72.9859" x2="607.615" y2="13.4544" gradientUnits="userSpaceOnUse"><stop stop-color="#D6B665"></stop><stop offset="1" stop-color="#AF9247"></stop></linearGradient><linearGradient id="paint4_linear_178_2026" x1="662.708" y1="72.9859" x2="759.533" y2="13.4544" gradientUnits="userSpaceOnUse"><stop stop-color="#D6B665"></stop><stop offset="1" stop-color="#AF9247"></stop></linearGradient><linearGradient id="paint5_linear_178_2026" x1="814.624" y1="72.9977" x2="911.238" y2="13.3598" gradientUnits="userSpaceOnUse"><stop stop-color="#D6B665"></stop><stop offset="1" stop-color="#AF9247"></stop></linearGradient><linearGradient id="paint6_linear_178_2026" x1="966.516" y1="72.9859" x2="1062.99" y2="14.1404" gradientUnits="userSpaceOnUse"><stop stop-color="#D6B665"></stop><stop offset="1" stop-color="#AF9247"></stop></linearGradient><linearGradient id="paint7_linear_178_2026" x1="1118.58" y1="72.9859" x2="1214.98" y2="14.2776" gradientUnits="userSpaceOnUse"><stop stop-color="#D6B665"></stop><stop offset="1" stop-color="#AF9247"></stop></linearGradient><linearGradient id="paint8_linear_178_2026" x1="1270.35" y1="72.9859" x2="1366.83" y2="14.1404" gradientUnits="userSpaceOnUse"><stop stop-color="#D6B665"></stop><stop offset="1" stop-color="#AF9247"></stop></linearGradient><linearGradient id="paint9_linear_178_2026" x1="1422.29" y1="72.9859" x2="1519.12" y2="13.4544" gradientUnits="userSpaceOnUse"><stop stop-color="#D6B665"></stop><stop offset="1" stop-color="#AF9247"></stop></linearGradient><linearGradient id="paint10_linear_178_2026" x1="1574.21" y1="72.9859" x2="1671.03" y2="13.4544" gradientUnits="userSpaceOnUse"><stop stop-color="#D6B665"></stop><stop offset="1" stop-color="#AF9247"></stop></linearGradient><linearGradient id="paint11_linear_178_2026" x1="1724.64" y1="72.98" x2="1785.61" y2="54.2728" gradientUnits="userSpaceOnUse"><stop stop-color="#D6B665"></stop><stop offset="1" stop-color="#AF9247"></stop></linearGradient><linearGradient id="paint12_linear_178_2026" x1="4.71556" y1="202.159" x2="95.9638" y2="-270.682" gradientUnits="userSpaceOnUse"><stop stop-color="#D6B665" stop-opacity="0.01"></stop><stop offset="0.51877" stop-color="#C0A254" stop-opacity="0.81"></stop><stop offset="1" stop-color="#AF9247" stop-opacity="0"></stop></linearGradient><linearGradient id="paint13_linear_178_2026" x1="90.7983" y1="94.2016" x2="112.491" y2="83.3622" gradientUnits="userSpaceOnUse"><stop stop-color="#D6B665"></stop><stop offset="1" stop-color="#AF9247"></stop></linearGradient><linearGradient id="paint14_linear_178_2026" x1="242.716" y1="94.2016" x2="264.409" y2="83.3622" gradientUnits="userSpaceOnUse"><stop stop-color="#D6B665"></stop><stop offset="1" stop-color="#AF9247"></stop></linearGradient><linearGradient id="paint15_linear_178_2026" x1="394.632" y1="94.2016" x2="416.325" y2="83.3622" gradientUnits="userSpaceOnUse"><stop stop-color="#D6B665"></stop><stop offset="1" stop-color="#AF9247"></stop></linearGradient><linearGradient id="paint16_linear_178_2026" x1="546.52" y1="94.2484" x2="567.048" y2="83.8202" gradientUnits="userSpaceOnUse"><stop stop-color="#D6B665"></stop><stop offset="1" stop-color="#AF9247"></stop></linearGradient><linearGradient id="paint17_linear_178_2026" x1="698.447" y1="94.2016" x2="719.724" y2="83.9024" gradientUnits="userSpaceOnUse"><stop stop-color="#D6B665"></stop><stop offset="1" stop-color="#AF9247"></stop></linearGradient><linearGradient id="paint18_linear_178_2026" x1="850.363" y1="94.2016" x2="871.64" y2="83.9024" gradientUnits="userSpaceOnUse"><stop stop-color="#D6B665"></stop><stop offset="1" stop-color="#AF9247"></stop></linearGradient><linearGradient id="paint19_linear_178_2026" x1="1002.3" y1="94.2016" x2="1023.99" y2="83.3622" gradientUnits="userSpaceOnUse"><stop stop-color="#D6B665"></stop><stop offset="1" stop-color="#AF9247"></stop></linearGradient><linearGradient id="paint20_linear_178_2026" x1="1154.22" y1="94.2016" x2="1175.91" y2="83.3622" gradientUnits="userSpaceOnUse"><stop stop-color="#D6B665"></stop><stop offset="1" stop-color="#AF9247"></stop></linearGradient><linearGradient id="paint21_linear_178_2026" x1="1306.11" y1="94.065" x2="1327.26" y2="83.6632" gradientUnits="userSpaceOnUse"><stop stop-color="#D6B665"></stop><stop offset="1" stop-color="#AF9247"></stop></linearGradient><linearGradient id="paint22_linear_178_2026" x1="1458.03" y1="94.2016" x2="1479.31" y2="83.9024" gradientUnits="userSpaceOnUse"><stop stop-color="#D6B665"></stop><stop offset="1" stop-color="#AF9247"></stop></linearGradient><linearGradient id="paint23_linear_178_2026" x1="1609.95" y1="94.2016" x2="1631.22" y2="83.9024" gradientUnits="userSpaceOnUse"><stop stop-color="#D6B665"></stop><stop offset="1" stop-color="#AF9247"></stop></linearGradient><linearGradient id="paint24_linear_178_2026" x1="55.0401" y1="224.9" x2="151.865" y2="165.368" gradientUnits="userSpaceOnUse"><stop stop-color="#D6B665" stop-opacity="0"></stop><stop offset="1" stop-color="#AF9247" stop-opacity="0.32"></stop></linearGradient><linearGradient id="paint25_linear_178_2026" x1="206.933" y1="224.9" x2="303.409" y2="166.054" gradientUnits="userSpaceOnUse"><stop stop-color="#D6B665" stop-opacity="0"></stop><stop offset="1" stop-color="#AF9247" stop-opacity="0.32"></stop></linearGradient><linearGradient id="paint26_linear_178_2026" x1="358.85" y1="224.9" x2="455.326" y2="166.054" gradientUnits="userSpaceOnUse"><stop stop-color="#D6B665" stop-opacity="0"></stop><stop offset="1" stop-color="#AF9247" stop-opacity="0.32"></stop></linearGradient><linearGradient id="paint27_linear_178_2026" x1="510.79" y1="224.906" x2="607.509" y2="165.321" gradientUnits="userSpaceOnUse"><stop stop-color="#D6B665" stop-opacity="0"></stop><stop offset="1" stop-color="#AF9247" stop-opacity="0.32"></stop></linearGradient><linearGradient id="paint28_linear_178_2026" x1="662.708" y1="224.9" x2="759.533" y2="165.368" gradientUnits="userSpaceOnUse"><stop stop-color="#D6B665" stop-opacity="0"></stop><stop offset="1" stop-color="#AF9247" stop-opacity="0.32"></stop></linearGradient><linearGradient id="paint29_linear_178_2026" x1="814.624" y1="224.912" x2="911.238" y2="165.274" gradientUnits="userSpaceOnUse"><stop stop-color="#D6B665" stop-opacity="0"></stop><stop offset="1" stop-color="#AF9247" stop-opacity="0.32"></stop></linearGradient><linearGradient id="paint30_linear_178_2026" x1="966.516" y1="224.9" x2="1062.99" y2="166.054" gradientUnits="userSpaceOnUse"><stop stop-color="#D6B665" stop-opacity="0"></stop><stop offset="1" stop-color="#AF9247" stop-opacity="0.32"></stop></linearGradient><linearGradient id="paint31_linear_178_2026" x1="1118.58" y1="224.9" x2="1214.98" y2="166.192" gradientUnits="userSpaceOnUse"><stop stop-color="#D6B665" stop-opacity="0"></stop><stop offset="1" stop-color="#AF9247" stop-opacity="0.32"></stop></linearGradient><linearGradient id="paint32_linear_178_2026" x1="1270.35" y1="224.906" x2="1366.72" y2="166.007" gradientUnits="userSpaceOnUse"><stop stop-color="#D6B665" stop-opacity="0"></stop><stop offset="1" stop-color="#AF9247" stop-opacity="0.32"></stop></linearGradient><linearGradient id="paint33_linear_178_2026" x1="1422.29" y1="224.9" x2="1519.12" y2="165.368" gradientUnits="userSpaceOnUse"><stop stop-color="#D6B665" stop-opacity="0"></stop><stop offset="1" stop-color="#AF9247" stop-opacity="0.32"></stop></linearGradient><linearGradient id="paint34_linear_178_2026" x1="1574.21" y1="224.9" x2="1671.03" y2="165.368" gradientUnits="userSpaceOnUse"><stop stop-color="#D6B665" stop-opacity="0"></stop><stop offset="1" stop-color="#AF9247" stop-opacity="0.32"></stop></linearGradient><linearGradient id="paint35_linear_178_2026" x1="1724.64" y1="224.894" x2="1785.61" y2="206.187" gradientUnits="userSpaceOnUse"><stop stop-color="#D6B665"></stop><stop offset="1" stop-color="#AF9247"></stop></linearGradient><clipPath id="clip0_178_2026"><rect width="1823" height="199" fill="white" transform="translate(-52)"></rect></clipPath></defs></svg> 