<svg width="46" height="46" viewBox="0 0 46 46" fill="none" xmlns="http://www.w3.org/2000/svg">
<g clip-path="url(#clip0_2102_2)">
<path d="M665.808 44.5097C665.808 27.353 678.459 13.4435 694.075 13.4175L694.075 -385.383C678.459 -385.406 665.808 -399.315 665.808 -416.472C665.808 -416.579 665.811 -416.686 665.811 -416.793L-79.8434 -416.793C-79.8434 -416.686 -79.8404 -416.579 -79.8404 -416.472C-79.8404 -399.302 -92.515 -385.38 -108.152 -385.38C-108.196 -385.38 -108.244 -385.383 -108.291 -385.383L-108.291 13.4176C-108.244 13.4176 -108.196 13.4176 -108.152 13.4176C-92.515 13.4176 -79.8404 27.3369 -79.8404 44.5097C-79.8404 44.5487 -79.8434 44.5909 -79.8434 44.6298L665.808 44.6297C665.808 44.5908 665.808 44.5486 665.808 44.5097Z" stroke="#F1E8D6" stroke-width="2" stroke-miterlimit="10"/>
<path d="M657.369 36.5589C657.369 19.9837 669.75 6.54548 685.033 6.52041L685.033 -378.766C669.75 -378.788 657.369 -392.226 657.369 -408.801C657.369 -408.904 657.372 -409.008 657.372 -409.111L-72.3685 -409.111C-72.3685 -409.008 -72.3656 -408.904 -72.3656 -408.801C-72.3656 -392.213 -84.7697 -378.762 -100.073 -378.762C-100.116 -378.762 -100.163 -378.765 -100.209 -378.765L-100.209 6.52047C-100.163 6.52047 -100.116 6.52047 -100.073 6.52047C-84.7697 6.52047 -72.3656 19.968 -72.3656 36.5589C-72.3656 36.5966 -72.3685 36.6373 -72.3685 36.6749L657.369 36.6749C657.369 36.6372 657.369 36.5965 657.369 36.5589Z" stroke="#F1E8D6" stroke-width="2" stroke-miterlimit="10"/>
</g>
<defs>
<clipPath id="clip0_2102_2">
<rect width="46" height="46" fill="white"/>
</clipPath>
</defs>
</svg>
