<svg width="46" height="46" viewBox="0 0 46 46" fill="none" xmlns="http://www.w3.org/2000/svg">
<g clip-path="url(#clip0_2102_2)">
<path d="M115.927 462.512C115.927 445.355 128.578 431.446 144.194 431.42L144.194 32.6192C128.578 32.5965 115.927 18.687 115.927 1.53034C115.927 1.42329 115.93 1.31625 115.93 1.2092L-629.724 1.2093C-629.724 1.31635 -629.721 1.4234 -629.721 1.53044C-629.721 18.7001 -642.396 32.6226 -658.033 32.6226C-658.077 32.6226 -658.125 32.6193 -658.172 32.6193L-658.172 431.42C-658.125 431.42 -658.077 431.42 -658.033 431.42C-642.396 431.42 -629.721 445.339 -629.721 462.512C-629.721 462.551 -629.724 462.593 -629.724 462.632L115.927 462.632C115.927 462.593 115.927 462.551 115.927 462.512Z" stroke="#F1E8D6" stroke-width="2" stroke-miterlimit="10"/>
<path d="M107.49 454.561C107.49 437.986 119.871 424.548 135.154 424.523L135.154 39.2366C119.871 39.2147 107.49 25.7765 107.49 9.20128C107.49 9.09786 107.493 8.99444 107.493 8.89102L-622.247 8.89112C-622.247 8.99454 -622.245 9.09796 -622.245 9.20138C-622.245 25.7891 -634.649 39.2399 -649.952 39.2399C-649.995 39.2399 -650.042 39.2367 -650.088 39.2367L-650.088 424.523C-650.042 424.523 -649.995 424.523 -649.952 424.523C-634.649 424.523 -622.245 437.97 -622.245 454.561C-622.245 454.599 -622.247 454.64 -622.247 454.677L107.49 454.677C107.49 454.639 107.49 454.599 107.49 454.561Z" stroke="#F1E8D6" stroke-width="2" stroke-miterlimit="10"/>
</g>
<defs>
<clipPath id="clip0_2102_2">
<rect width="46" height="46" fill="white"/>
</clipPath>
</defs>
</svg>
