<svg width="46" height="46" viewBox="0 0 46 46" fill="none" xmlns="http://www.w3.org/2000/svg">
<g clip-path="url(#clip0_2102_2)">
<path d="M775.863 462.51C775.863 445.353 788.514 431.444 804.13 431.418L804.13 32.6171C788.514 32.5944 775.863 18.6848 775.863 1.5282C775.863 1.42116 775.866 1.31411 775.866 1.20707L30.2113 1.20717C30.2113 1.31421 30.2142 1.42126 30.2142 1.52831C30.2142 18.6979 17.5397 32.6205 1.9025 32.6204C1.85819 32.6204 1.81093 32.6172 1.76367 32.6172L1.76367 431.418C1.81093 431.418 1.85819 431.418 1.9025 431.418C17.5397 431.418 30.2142 445.337 30.2142 462.51C30.2142 462.549 30.2113 462.591 30.2113 462.63L775.863 462.63C775.863 462.591 775.863 462.549 775.863 462.51Z" stroke="#F1E8D6" stroke-width="2" stroke-miterlimit="10"/>
<path d="M767.424 454.559C767.424 437.984 779.805 424.546 795.088 424.52L795.088 39.2345C779.805 39.2126 767.424 25.7744 767.424 9.19914C767.424 9.09573 767.427 8.99231 767.427 8.88889L37.6862 8.88898C37.6862 8.9924 37.6891 9.09582 37.6891 9.19924C37.6891 25.787 25.285 39.2377 9.98157 39.2377C9.9382 39.2377 9.89195 39.2346 9.8457 39.2346L9.8457 424.521C9.89195 424.521 9.93821 424.521 9.98157 424.521C25.285 424.521 37.6891 437.968 37.6891 454.559C37.6891 454.597 37.6862 454.637 37.6862 454.675L767.424 454.675C767.424 454.637 767.424 454.597 767.424 454.559Z" stroke="#F1E8D6" stroke-width="2" stroke-miterlimit="10"/>
</g>
<defs>
<clipPath id="clip0_2102_2">
<rect width="46" height="46" fill="white"/>
</clipPath>
</defs>
</svg>
