<svg width="46" height="46" viewBox="0 0 46 46" fill="none" xmlns="http://www.w3.org/2000/svg">
<g clip-path="url(#clip0_2102_2)">
<path d="M15.9368 462.512C15.9368 445.356 28.5877 431.446 44.2042 431.42L44.2043 32.6195C28.5878 32.5968 15.9368 18.6872 15.9368 1.53059C15.9368 1.42354 15.9398 1.31649 15.9398 1.20945L-729.714 1.20955C-729.714 1.31659 -729.712 1.42364 -729.712 1.53069C-729.712 18.7003 -742.386 32.6228 -758.023 32.6228C-758.068 32.6228 -758.115 32.6196 -758.162 32.6196L-758.162 431.42C-758.115 431.42 -758.068 431.42 -758.023 431.42C-742.386 431.42 -729.712 445.339 -729.712 462.512C-729.712 462.551 -729.714 462.593 -729.714 462.632L15.9368 462.632C15.9368 462.593 15.9368 462.551 15.9368 462.512Z" stroke="#F1E8D6" stroke-width="2" stroke-miterlimit="10"/>
<path d="M7.49793 454.561C7.49793 437.986 19.8789 424.548 35.1621 424.523L35.1621 39.2369C19.8789 39.2149 7.49795 25.7768 7.49795 9.20153C7.49795 9.09811 7.50083 8.99469 7.50083 8.89127L-722.24 8.89136C-722.24 8.99478 -722.237 9.0982 -722.237 9.20162C-722.237 25.7894 -734.641 39.2401 -749.944 39.2401C-749.988 39.2401 -750.034 39.237 -750.08 39.237L-750.08 424.523C-750.034 424.523 -749.988 424.523 -749.944 424.523C-734.641 424.523 -722.237 437.97 -722.237 454.561C-722.237 454.599 -722.24 454.64 -722.24 454.677L7.49793 454.677C7.49793 454.64 7.49793 454.599 7.49793 454.561Z" stroke="#F1E8D6" stroke-width="2" stroke-miterlimit="10"/>
</g>
<defs>
<clipPath id="clip0_2102_2">
<rect width="46" height="46" fill="white"/>
</clipPath>
</defs>
</svg>
