<svg width="46" height="46" viewBox="0 0 46 46" fill="none" xmlns="http://www.w3.org/2000/svg">
<g clip-path="url(#clip0_2102_2)">
<path d="M15.9837 44.5128C15.9837 27.3562 28.6346 13.4467 44.2511 13.4207L44.2511 -385.38C28.6346 -385.403 15.9837 -399.312 15.9837 -416.469C15.9837 -416.576 15.9867 -416.683 15.9867 -416.79L-729.668 -416.79C-729.668 -416.683 -729.665 -416.576 -729.665 -416.469C-729.665 -399.299 -742.339 -385.377 -757.976 -385.377C-758.021 -385.377 -758.068 -385.38 -758.115 -385.38L-758.115 13.4208C-758.068 13.4208 -758.021 13.4208 -757.976 13.4208C-742.339 13.4208 -729.665 27.3401 -729.665 44.5129C-729.665 44.5518 -729.668 44.594 -729.668 44.633L15.9837 44.6329C15.9837 44.594 15.9837 44.5518 15.9837 44.5128Z" stroke="#F1E8D6" stroke-width="2" stroke-miterlimit="10"/>
<path d="M7.54676 36.562C7.54676 19.9868 19.9277 6.5486 35.2109 6.52353L35.2109 -378.762C19.9277 -378.784 7.54678 -392.223 7.54678 -408.798C7.54678 -408.901 7.54966 -409.005 7.54966 -409.108L-722.191 -409.108C-722.191 -409.005 -722.188 -408.901 -722.188 -408.798C-722.188 -392.21 -734.592 -378.759 -749.895 -378.759C-749.939 -378.759 -749.985 -378.762 -750.031 -378.762L-750.031 6.52358C-749.985 6.52358 -749.939 6.52358 -749.895 6.52358C-734.592 6.52359 -722.188 19.9712 -722.188 36.5621C-722.188 36.5997 -722.191 36.6404 -722.191 36.678L7.54676 36.678C7.54676 36.6404 7.54676 36.5996 7.54676 36.562Z" stroke="#F1E8D6" stroke-width="2" stroke-miterlimit="10"/>
</g>
<defs>
<clipPath id="clip0_2102_2">
<rect width="46" height="46" fill="white"/>
</clipPath>
</defs>
</svg>
