<svg width="46" height="46" viewBox="0 0 46 46" fill="none" xmlns="http://www.w3.org/2000/svg">
<g clip-path="url(#clip0_2102_2)">
<path d="M775.857 382.51C775.857 365.353 788.508 351.443 804.124 351.417L804.124 -47.3831C788.508 -47.4059 775.857 -61.3154 775.857 -78.472C775.857 -78.5791 775.86 -78.6861 775.86 -78.7932L30.2054 -78.7931C30.2054 -78.686 30.2084 -78.579 30.2084 -78.4719C30.2084 -61.3023 17.5338 -47.3798 1.89664 -47.3798C1.85233 -47.3798 1.80507 -47.383 1.75781 -47.383L1.75781 351.418C1.80507 351.418 1.85233 351.418 1.89664 351.418C17.5338 351.418 30.2084 365.337 30.2084 382.51C30.2084 382.549 30.2054 382.591 30.2054 382.63L775.857 382.63C775.857 382.591 775.857 382.549 775.857 382.51Z" stroke="#F1E8D6" stroke-width="2" stroke-miterlimit="10"/>
<path d="M767.418 374.559C767.418 357.984 779.799 344.545 795.082 344.52L795.082 -40.7657C779.799 -40.7876 767.418 -54.2258 767.418 -70.801C767.418 -70.9045 767.421 -71.0079 767.421 -71.1113L37.6803 -71.1112C37.6803 -71.0078 37.6832 -70.9044 37.6832 -70.8009C37.6832 -54.2132 25.2792 -40.7625 9.97571 -40.7625C9.93235 -40.7625 9.88609 -40.7656 9.83984 -40.7656L9.83984 344.52C9.88609 344.52 9.93235 344.52 9.97571 344.52C25.2792 344.52 37.6832 357.968 37.6832 374.559C37.6832 374.596 37.6803 374.637 37.6803 374.675L767.418 374.675C767.418 374.637 767.418 374.596 767.418 374.559Z" stroke="#F1E8D6" stroke-width="2" stroke-miterlimit="10"/>
</g>
<defs>
<clipPath id="clip0_2102_2">
<rect width="46" height="46" fill="white"/>
</clipPath>
</defs>
</svg>
