<svg width="46" height="46" viewBox="0 0 46 46" fill="none" xmlns="http://www.w3.org/2000/svg">
<g clip-path="url(#clip0_2102_2)">
<path d="M775.816 44.5096C775.816 27.353 788.467 13.4434 804.083 13.4175L804.083 -385.383C788.467 -385.406 775.816 -399.315 775.816 -416.472C775.816 -416.579 775.819 -416.686 775.819 -416.793L30.1644 -416.793C30.1644 -416.686 30.1674 -416.579 30.1674 -416.472C30.1674 -399.302 17.4928 -385.38 1.85562 -385.38C1.81132 -385.38 1.76406 -385.383 1.7168 -385.383L1.7168 13.4175C1.76406 13.4175 1.81132 13.4175 1.85562 13.4175C17.4928 13.4175 30.1674 27.3368 30.1674 44.5097C30.1674 44.5486 30.1644 44.5908 30.1644 44.6297L775.816 44.6297C775.816 44.5907 775.816 44.5485 775.816 44.5096Z" stroke="#F1E8D6" stroke-width="2" stroke-miterlimit="10"/>
<path d="M767.377 36.5588C767.377 19.9836 779.758 6.54542 795.041 6.52035L795.041 -378.766C779.758 -378.788 767.377 -392.226 767.377 -408.801C767.377 -408.904 767.38 -409.008 767.38 -409.111L37.6393 -409.111C37.6393 -409.008 37.6422 -408.904 37.6422 -408.801C37.6422 -392.213 25.2381 -378.762 9.93469 -378.762C9.89133 -378.762 9.84508 -378.766 9.79883 -378.766L9.79883 6.52041C9.84508 6.52041 9.89133 6.52041 9.93469 6.52041C25.2381 6.52041 37.6422 19.968 37.6422 36.5589C37.6422 36.5965 37.6393 36.6372 37.6393 36.6749L767.377 36.6748C767.377 36.6372 767.377 36.5964 767.377 36.5588Z" stroke="#F1E8D6" stroke-width="2" stroke-miterlimit="10"/>
</g>
<defs>
<clipPath id="clip0_2102_2">
<rect width="46" height="46" fill="white"/>
</clipPath>
</defs>
</svg>
