<svg width="46" height="46" viewBox="0 0 46 46" fill="none" xmlns="http://www.w3.org/2000/svg">
<g clip-path="url(#clip0_2102_2)">
<path d="M16.0013 99.5128C16.0013 82.3561 28.6522 68.4466 44.2687 68.4206L44.2687 -330.38C28.6522 -330.403 16.0013 -344.312 16.0013 -361.469C16.0013 -361.576 16.0042 -361.683 16.0042 -361.79L-729.65 -361.79C-729.65 -361.683 -729.647 -361.576 -729.647 -361.469C-729.647 -344.299 -742.322 -330.377 -757.959 -330.377C-758.003 -330.377 -758.05 -330.38 -758.098 -330.38L-758.098 68.4207C-758.05 68.4207 -758.003 68.4207 -757.959 68.4207C-742.322 68.4207 -729.647 82.34 -729.647 99.5128C-729.647 99.5517 -729.65 99.5939 -729.65 99.6329L16.0013 99.6328C16.0013 99.5939 16.0013 99.5517 16.0013 99.5128Z" stroke="#F1E8D6" stroke-width="2" stroke-miterlimit="10"/>
<path d="M7.56239 91.5619C7.56239 74.9867 19.9433 61.5485 35.2265 61.5234L35.2265 -323.763C19.9433 -323.784 7.5624 -337.223 7.56241 -353.798C7.56241 -353.901 7.56529 -354.005 7.56529 -354.108L-722.175 -354.108C-722.175 -354.005 -722.172 -353.901 -722.172 -353.798C-722.172 -337.21 -734.576 -323.759 -749.88 -323.759C-749.923 -323.759 -749.969 -323.762 -750.016 -323.762L-750.016 61.5235C-749.969 61.5235 -749.923 61.5235 -749.88 61.5235C-734.576 61.5235 -722.172 74.9711 -722.172 91.562C-722.172 91.5996 -722.175 91.6403 -722.175 91.6779L7.56239 91.6779C7.56239 91.6403 7.56239 91.5995 7.56239 91.5619Z" stroke="#F1E8D6" stroke-width="2" stroke-miterlimit="10"/>
</g>
<defs>
<clipPath id="clip0_2102_2">
<rect width="46" height="46" fill="white"/>
</clipPath>
</defs>
</svg>
