<?xml version="1.0" encoding="UTF-8"?>
<svg xmlns="http://www.w3.org/2000/svg" width="39" height="40" viewBox="0 0 39 40" fill="none">
  <path fill-rule="evenodd" clip-rule="evenodd" d="M19.9297 12.9092C16.3974 12.7163 13.6409 15.2679 13.033 19.2616C12.5297 22.5689 13.4221 26.5988 14.1855 26.8017C14.5093 26.8877 15.2885 26.2673 15.8553 25.7108C15.9619 25.6062 16.123 25.5886 16.248 25.6681C17.1317 26.2307 18.1322 26.6534 19.2352 26.7136C22.8615 26.9116 26.0751 23.957 26.2652 20.1816C26.455 16.4062 23.5561 13.1071 19.9297 12.9092ZM14.0146 32.0822C13.8778 31.9814 13.6894 32.0087 13.5748 32.136C12.0428 33.8371 8.12203 35.0303 7.94244 32.7087C7.94244 30.8896 7.54999 29.3569 7.11789 27.6691C6.58868 25.6022 6 23.303 6 19.9613C6 11.9928 12.2777 6 19.7209 6C27.1643 6 33 12.2853 33 20.0387C33 27.7921 26.9784 33.9226 19.7914 33.9226C17.2416 33.9226 16.0042 33.5487 14.0146 32.0822Z" stroke="url(#paint0_linear_3471_726)" stroke-width="2"></path>
  <defs>
    <linearGradient id="paint0_linear_3471_726" x1="-17.3654" y1="-20.3846" x2="54.7794" y2="50.2222" gradientUnits="userSpaceOnUse">
      <stop stop-color="#D6B665"></stop>
      <stop offset="1" stop-color="#AF9247"></stop>
    </linearGradient>
  </defs>
</svg>
