<?xml version="1.0" encoding="UTF-8"?>
<svg xmlns="http://www.w3.org/2000/svg" width="52" height="52" viewBox="0 0 52 52" fill="none">
  <path opacity="0.5" fill-rule="evenodd" clip-rule="evenodd" d="M26.7958 13.3378C20.2544 12.9935 15.1498 17.5499 14.0241 24.6815C13.092 30.5874 14.7447 37.7837 16.1583 38.146C16.7579 38.2996 18.2008 37.1917 19.2506 36.198C19.448 36.0112 19.7464 35.9797 19.9778 36.1218C21.6143 37.1263 23.467 37.8812 25.5096 37.9887C32.2251 38.3422 38.1762 33.0662 38.5279 26.3243C38.8797 19.5825 33.5112 13.6913 26.7958 13.3378ZM15.8418 47.5756C15.5885 47.3956 15.2396 47.4444 15.0273 47.6717C12.1903 50.7092 4.92971 52.8398 4.59712 48.6941C4.59712 45.4459 3.87036 42.7087 3.07017 39.695C2.09015 36.004 1 31.8983 1 25.931C1 11.7014 12.6254 1 26.4091 1C40.1929 1 51 12.2238 51 26.0692C51 39.9145 39.8489 50.862 26.5396 50.862C21.8177 50.862 19.5264 50.1943 15.8418 47.5756Z" stroke="#FCF5ED" stroke-width="2"></path>
</svg>
