<?xml version="1.0" encoding="UTF-8"?> <svg xmlns="http://www.w3.org/2000/svg" width="64" height="65" viewBox="0 0 64 65" fill="none"><path d="M51.1704 32.0367C56.2283 32.0367 60.3173 27.8876 60.2195 22.8073C60.1258 17.945 56.1323 13.988 51.2695 13.9357C50.6228 13.9287 49.9917 13.99 49.3826 14.1122C49.1473 14.1595 48.9316 13.9666 48.963 13.7286C49.0138 13.3432 49.0409 12.9503 49.0409 12.5509C49.0409 7.55218 44.9887 3.50012 39.9901 3.50012C36.8101 3.50012 34.0151 5.14123 32.401 7.62159C32.265 7.83061 31.9562 7.83061 31.8202 7.62159C30.2059 5.14111 27.4109 3.5 24.2309 3.5C21.7574 3.5 19.5166 4.49331 17.8829 6.10146C16.8457 7.16947 16.3519 7.85676 15.7446 9.34779" stroke="white" stroke-width="2.5" stroke-miterlimit="10" stroke-linecap="round" stroke-linejoin="round"></path><path d="M15.6921 9.54932C15.3619 10.4888 15.1803 11.4983 15.1803 12.5507C15.1803 12.9501 15.2073 13.343 15.2582 13.7284C15.2897 13.9663 15.0739 14.1593 14.8386 14.112C14.2295 13.9897 13.5984 13.9285 12.9517 13.9355C8.08872 13.9878 4.09535 17.9448 4.00172 22.8071C3.90379 27.8874 7.99277 32.0365 13.0508 32.0365" stroke="white" stroke-width="2.5" stroke-miterlimit="10" stroke-linecap="round" stroke-linejoin="round"></path><path d="M41.4646 29.9025C44.9518 29.9025 47.7486 26.9457 47.4846 23.4024C47.2607 20.3967 44.7978 17.9933 41.7878 17.8362C41.3323 17.8124 40.8879 17.8417 40.4582 17.9139C41.2551 20.2311 39.5599 22.8257 36.932 22.8257C34.3235 22.8257 32.6337 20.2692 33.3883 17.9651C32.9764 17.8762 32.5495 17.8277 32.111 17.8277C30.3658 17.8277 28.794 18.5685 27.6918 19.7526C27.552 19.9029 27.3171 19.9034 27.1772 19.7531C26.0074 18.4961 24.3083 17.7384 22.4343 17.8361C19.4242 17.993 16.9614 20.3964 16.7375 23.4023C16.4735 26.9456 19.2702 29.9024 22.7575 29.9024" stroke="white" stroke-width="2.5" stroke-miterlimit="10" stroke-linecap="round" stroke-linejoin="round"></path><path d="M26.6426 27.2859V39.8902" stroke="white" stroke-width="2.5" stroke-miterlimit="10" stroke-linecap="round" stroke-linejoin="round"></path><path d="M26.6426 43.9658V57.3046" stroke="white" stroke-width="2.5" stroke-miterlimit="10" stroke-linecap="round" stroke-linejoin="round"></path><path d="M32.1123 30.0015V61.375" stroke="white" stroke-width="2.5" stroke-miterlimit="10" stroke-linecap="round" stroke-linejoin="round"></path><path d="M37.5815 27.2861V57.3047" stroke="white" stroke-width="2.5" stroke-miterlimit="10" stroke-linecap="round" stroke-linejoin="round"></path><path d="M19.6989 49.4356C18.6649 48.1703 17.0927 47.3623 15.3313 47.3623C12.2175 47.3623 9.69336 49.8866 9.69336 53.0003C9.69336 56.1141 12.2176 58.6383 15.3313 58.6383" stroke="white" stroke-width="2.5" stroke-miterlimit="10" stroke-linecap="round" stroke-linejoin="round"></path><path d="M50.2153 47.2873C51.7894 46.849 53.1611 45.7341 53.869 44.1212C55.1204 41.2698 53.8233 37.9441 50.9721 36.6927C48.1208 35.4413 44.795 36.7384 43.5437 39.5896" stroke="white" stroke-width="2.5" stroke-miterlimit="10" stroke-linecap="round" stroke-linejoin="round"></path><path d="M17.9213 33.5498L15.1284 37.8728C13.5291 40.3482 15.3061 43.6119 18.2532 43.6119C21.2004 43.6119 22.9773 40.3482 21.378 37.8728L18.5851 33.5498C18.4294 33.3089 18.077 33.3089 17.9213 33.5498Z" stroke="#B99C60" stroke-width="2.5" stroke-miterlimit="10" stroke-linecap="round" stroke-linejoin="round"></path><path d="M45.4052 48.9258L42.6123 53.2488C41.013 55.7241 42.7899 58.9878 45.7371 58.9878C48.6843 58.9878 50.4612 55.7241 48.8619 53.2486L46.069 48.9257C45.9133 48.6849 45.5609 48.6849 45.4052 48.9258Z" stroke="#B99C60" stroke-width="2.5" stroke-miterlimit="10" stroke-linecap="round" stroke-linejoin="round"></path><path d="M36.6005 12.7637L33.8076 17.0866C32.2083 19.5621 33.9853 22.8258 36.9324 22.8258C39.8796 22.8258 41.6565 19.5621 40.0572 17.0866L37.2642 12.7637C37.1086 12.5228 36.7562 12.5228 36.6005 12.7637Z" stroke="#B99C60" stroke-width="2.5" stroke-miterlimit="10" stroke-linecap="round" stroke-linejoin="round"></path></svg> 