<svg width="805" height="464" viewBox="0 0 805 464" fill="none" xmlns="http://www.w3.org/2000/svg">
<path d="M775.099 462.303C775.099 445.146 787.75 431.237 803.366 431.211L803.366 32.41C787.75 32.3873 775.099 18.4777 775.099 1.32111C775.099 1.21407 775.102 1.10702 775.102 0.999973L29.4476 1.00007C29.4476 1.10712 29.4506 1.21417 29.4506 1.32121C29.4506 18.4908 16.776 32.4134 1.13883 32.4134C1.09452 32.4134 1.04726 32.4101 0.999999 32.4101L0.999999 431.211C1.04726 431.211 1.09452 431.211 1.13883 431.211C16.776 431.211 29.4506 445.13 29.4506 462.303C29.4506 462.342 29.4476 462.384 29.4476 462.423L775.099 462.423C775.099 462.384 775.099 462.342 775.099 462.303Z" stroke="#F1E8D6" stroke-width="2" stroke-miterlimit="10"/>
<path d="M766.658 454.352C766.658 437.777 779.039 424.338 794.322 424.313L794.322 39.0273C779.039 39.0053 766.658 25.5672 766.658 8.99193C766.658 8.88851 766.661 8.78509 766.661 8.68167L36.9206 8.68177C36.9206 8.78519 36.9235 8.88861 36.9235 8.99203C36.9235 25.5798 24.5194 39.0305 9.21594 39.0305C9.17258 39.0305 9.12633 39.0274 9.08008 39.0274L9.08008 424.313C9.12633 424.313 9.17258 424.313 9.21594 424.313C24.5194 424.313 36.9235 437.761 36.9235 454.352C36.9235 454.389 36.9206 454.43 36.9206 454.468L766.658 454.468C766.658 454.43 766.658 454.389 766.658 454.352Z" stroke="#F1E8D6" stroke-width="2" stroke-miterlimit="10"/>
</svg>
