<?xml version="1.0" encoding="UTF-8"?> <svg xmlns="http://www.w3.org/2000/svg" width="15" height="16" viewBox="0 0 15 16" fill="none"><g clip-path="url(#clip0_130_133)"><path d="M12.8519 9.95844C13.6246 9.11043 14.2657 8.41279 14.1711 7.48945C14.0769 6.56611 13.5116 5.56697 12.1171 5.56697C10.791 5.56697 8.63441 7.07004 8.36016 9.9396H7.71091C7.74276 9.43843 7.80233 8.81184 7.91456 8.29963C8.2032 6.81739 9.32163 5.79941 9.32163 4.41761C9.32163 3.03566 8.83163 2.53279 8.25374 1.86701C7.67584 1.20122 7.48122 0.648438 7.48122 0.648438C7.48122 0.648438 7.28645 1.20122 6.70901 1.86701C6.13112 2.53279 5.64081 3.03535 5.64081 4.41761C5.64081 5.79987 6.75924 6.81708 7.04803 8.29979C7.16042 8.81184 7.21999 9.43857 7.25169 9.9396H6.64026C6.36647 7.07004 4.2094 5.56697 2.88333 5.56697C1.48821 5.56697 0.922876 6.56611 0.82855 7.48991C0.73438 8.41325 1.37521 9.11043 2.14772 9.95875C2.92024 10.8067 2.71291 11.4098 1.71438 11.5039C2.82638 12.1634 3.73058 11.3343 3.73058 10.3733C3.73058 9.41225 2.9011 8.86543 2.82607 8.33776C2.75073 7.81025 3.10874 7.13175 3.86242 7.22608C5.3534 7.40217 5.91827 8.96328 6.07508 9.93945H5.70987C5.39765 9.93945 5.14422 10.1462 5.14422 10.401C5.14422 10.6559 5.39765 10.8629 5.70987 10.8629H6.12484C6.0812 12.0031 5.69808 12.7141 5.1819 12.7476C4.59773 12.7853 4.50355 12.2199 4.88039 12.1634C4.52238 11.4658 3.63671 11.7678 3.50472 12.3518C3.36951 12.9508 3.90054 13.5959 4.59803 13.6148C5.25769 13.6322 6.48912 13.4633 6.65282 10.8629H7.29012C7.3039 11.0322 7.3379 11.7649 6.99796 12.7853C6.6081 13.9536 6.75296 14.343 7.48122 15.3484C8.2101 14.343 8.35464 13.9536 7.96509 12.7853C7.62531 11.7649 7.65854 11.0325 7.67217 10.8629H8.3476C8.51145 13.463 9.74318 13.6322 10.4027 13.6148C11.0999 13.5959 11.6309 12.9508 11.4957 12.3519C11.3637 11.7678 10.4782 11.4663 10.12 12.1636C10.497 12.2199 10.4027 12.7853 9.81852 12.7476C9.30249 12.7139 8.91921 12.0034 8.87604 10.8629H9.36603C9.67841 10.8629 9.93198 10.6562 9.93198 10.401C9.93198 10.1457 9.67856 9.93945 9.36603 9.93945H8.9255C9.08214 8.96297 9.64748 7.40186 11.1382 7.22608C11.8917 7.13175 12.2498 7.81025 12.1743 8.33776C12.099 8.86512 11.2698 9.41194 11.2698 10.3733C11.2698 11.3347 12.1743 12.1639 13.2862 11.5039C12.2875 11.4093 12.0802 10.8067 12.8528 9.95875L12.8521 9.95844H12.8519Z" fill="url(#paint0_linear_130_133)"></path></g><defs><linearGradient id="paint0_linear_130_133" x1="1.23501" y1="1.22419" x2="16.8001" y2="8.12758" gradientUnits="userSpaceOnUse"><stop stop-color="#D6B665"></stop><stop offset="1" stop-color="#AF9247"></stop></linearGradient><clipPath id="clip0_130_133"><rect width="15" height="15" fill="white" transform="translate(0 0.5)"></rect></clipPath></defs></svg> 