<?xml version="1.0" encoding="UTF-8"?> <svg xmlns="http://www.w3.org/2000/svg" width="54" height="54" viewBox="0 0 54 54" fill="none"><path d="M45.9331 9.53516C47.2156 9.53516 48.1831 10.6602 47.6656 12.7527L41.3881 42.3402C40.9493 44.4439 39.6781 44.9502 37.9231 43.9714L22.9493 32.9127C22.8912 32.871 22.8439 32.8161 22.8113 32.7525C22.7787 32.6889 22.7616 32.6185 22.7616 32.547C22.7616 32.4756 22.7787 32.4051 22.8113 32.3415C22.8439 32.278 22.8912 32.2231 22.9493 32.1814L40.2406 16.5664C41.0281 15.8689 40.0718 15.5314 39.0368 16.1614L17.3356 29.8527C17.2697 29.8956 17.195 29.923 17.117 29.9327C17.0391 29.9424 16.9599 29.9343 16.8856 29.9089L7.67181 26.9952C5.62431 26.3989 5.62431 24.9927 8.13306 23.9914L44.9993 9.77141C45.2921 9.63227 45.6093 9.552 45.9331 9.53516Z" stroke="url(#paint0_linear_178_2018)" stroke-width="2" stroke-linecap="round" stroke-linejoin="round"></path><defs><linearGradient id="paint0_linear_178_2018" x1="7.48424" y1="10.9027" x2="50.8385" y2="36.1188" gradientUnits="userSpaceOnUse"><stop stop-color="#D6B665"></stop><stop offset="1" stop-color="#AF9247"></stop></linearGradient></defs></svg> 