<?xml version="1.0" encoding="UTF-8"?> <svg xmlns="http://www.w3.org/2000/svg" width="24" height="24" viewBox="0 0 24 24" fill="none"><path d="M20.4148 4.24023C20.9848 4.24023 21.4148 4.74023 21.1848 5.67023L18.3948 18.8202C18.1998 19.7552 17.6348 19.9802 16.8548 19.5452L10.1998 14.6302C10.174 14.6117 10.153 14.5873 10.1385 14.5591C10.124 14.5308 10.1164 14.4995 10.1164 14.4677C10.1164 14.436 10.124 14.4047 10.1385 14.3764C10.153 14.3481 10.174 14.3238 10.1998 14.3052L17.8848 7.36523C18.2348 7.05523 17.8098 6.90523 17.3498 7.18523L7.7048 13.2702C7.67555 13.2893 7.64234 13.3015 7.60769 13.3058C7.57303 13.3101 7.53785 13.3065 7.5048 13.2952L3.4098 12.0002C2.4998 11.7352 2.4998 11.1102 3.6148 10.6652L19.9998 4.34523C20.1299 4.2834 20.2709 4.24772 20.4148 4.24023Z" stroke="#FCF5ED" stroke-width="0.5" stroke-linecap="round" stroke-linejoin="round"></path></svg> 