<?xml version="1.0" encoding="UTF-8"?> <svg xmlns="http://www.w3.org/2000/svg" width="20" height="19" viewBox="0 0 20 19" fill="none"><g clip-path="url(#clip0_120_181)"><path fill-rule="evenodd" clip-rule="evenodd" d="M9.99988 2.99222C10.2108 2.58866 10.6318 2.5119 10.8638 2.46934C10.9715 2.44977 11.0386 2.43761 11.0249 2.40341C10.9687 2.26281 10.8268 1.94209 10.6818 1.61491V1.61472C10.5283 1.26816 10.3715 0.914379 10.3102 0.759339C10.1939 0.469019 9.99988 0.380859 9.99988 0.380859C9.99988 0.380859 9.80665 0.469019 9.69018 0.759339C9.62938 0.912289 9.47586 1.25904 9.32443 1.60142C9.17756 1.93335 9.0324 2.26091 8.97559 2.40341C8.96172 2.43761 9.0286 2.44977 9.13595 2.46934C9.36775 2.51152 9.78841 2.58809 9.99988 2.99222ZM3.49124 9.5001C3.08768 9.28863 3.01111 8.8674 2.96893 8.6356C2.94955 8.52768 2.93739 8.4608 2.90319 8.47429C2.7586 8.53224 2.42439 8.68044 2.08809 8.8294C1.74989 8.97931 1.40979 9.12998 1.25912 9.1904C0.968803 9.30706 0.879883 9.5001 0.879883 9.5001C0.879883 9.5001 0.968803 9.69333 1.25912 9.8098C1.4134 9.87117 1.76433 10.0266 2.10918 10.1794C2.43807 10.3251 2.76145 10.4683 2.90338 10.5252C2.9372 10.5388 2.94936 10.472 2.96893 10.3642C3.01111 10.1324 3.08768 9.71157 3.49143 9.5001H3.49124ZM9.13595 16.5309C9.36775 16.4887 9.78841 16.4121 9.99988 16.0087C10.2106 16.4119 10.6311 16.4883 10.8631 16.5305C10.9714 16.5502 11.0386 16.5624 11.0249 16.5968C10.9676 16.7402 10.8211 17.0712 10.6734 17.4052C10.5228 17.7457 10.3708 18.0892 10.3102 18.2409C10.1931 18.5312 9.99988 18.6193 9.99988 18.6193C9.99988 18.6193 9.80665 18.5312 9.69018 18.2409C9.6309 18.0923 9.48365 17.7596 9.33602 17.4261V17.426H9.33583C9.18478 17.0851 9.03373 16.7435 8.97559 16.5968C8.96153 16.5626 9.02822 16.5504 9.13595 16.5309ZM15.773 9.5001C15.773 9.5001 16.7491 9.32606 16.7291 8.59057C16.7107 7.85527 15.4339 7.56552 15.3744 7.79827C15.3619 7.84995 15.3683 7.94115 15.3761 8.05173C15.4033 8.43667 15.447 9.05569 14.7554 9.05569H11.1435C11.0903 8.92293 11.0149 8.8002 10.9204 8.69279L11.1289 8.53604C11.9081 7.94989 13.9317 6.42799 14.3066 6.11848C14.8323 5.68452 14.425 5.22453 14.425 5.22453C14.3066 5.09267 13.9386 4.88234 13.5704 5.26367C13.2422 5.6051 11.2552 8.07738 10.8353 8.60254C10.7223 8.49674 10.5901 8.41354 10.4458 8.35744V4.74364C10.4458 4.05337 11.0629 4.09688 11.4481 4.12386C11.5594 4.13165 11.6514 4.13811 11.7032 4.12519C11.935 4.06667 11.6447 2.79063 10.9094 2.77049C10.1747 2.75149 10.0006 3.72752 10.0006 3.72752C10.0006 3.72752 9.82736 2.75206 9.09111 2.77068C8.35638 2.79063 8.06606 4.06743 8.29881 4.12538C8.35068 4.13811 8.44264 4.13165 8.55379 4.12386C8.93892 4.09688 9.55623 4.05356 9.55623 4.74364V8.35706C9.41186 8.41299 9.27962 8.4962 9.16673 8.60216C8.74531 8.07719 6.76038 5.60491 6.43073 5.26348C6.06346 4.88215 5.69467 5.09248 5.57611 5.22434C5.57611 5.22434 5.16875 5.68414 5.69467 6.11829C6.11077 6.46181 8.55797 8.30006 9.08085 8.69279C8.98625 8.80008 8.9108 8.92283 8.85779 9.05569H5.24608C4.55505 9.05569 4.59856 8.43762 4.62554 8.05249C4.63333 7.94153 4.63979 7.84995 4.62687 7.79789C4.56911 7.56533 3.29155 7.85565 3.27217 8.59038C3.25298 9.32587 4.22768 9.5001 4.22768 9.5001C4.22768 9.5001 3.25298 9.67338 3.27236 10.4089C3.29136 11.1436 4.56911 11.4339 4.62687 11.2021C4.6396 11.1501 4.63314 11.0589 4.62535 10.9481C4.59818 10.5632 4.55448 9.94451 5.24608 9.94451H8.85798C8.91118 10.0794 8.98756 10.2008 9.08104 10.3074C8.55816 10.6992 6.11115 12.538 5.69486 12.881C5.16894 13.3151 5.5763 13.7749 5.5763 13.7749C5.69486 13.9068 6.06289 14.1171 6.43092 13.7358C6.76057 13.3957 8.7455 10.9228 9.16692 10.3977C9.2794 10.5022 9.4105 10.5858 9.55642 10.6437V14.2556C9.55642 14.9459 8.93892 14.9029 8.55379 14.876C8.44264 14.8684 8.35087 14.8619 8.29881 14.8748C8.06701 14.9326 8.35733 16.2094 9.0913 16.2278C9.82755 16.248 10.0008 15.2725 10.0008 15.2725C10.0008 15.2725 10.1749 16.248 10.9096 16.2278C11.6449 16.2094 11.9352 14.9326 11.7034 14.8748C11.6514 14.8619 11.5596 14.8682 11.4486 14.876C11.0633 14.9029 10.4458 14.9459 10.4458 14.2556V10.6437C10.5899 10.5869 10.7221 10.5034 10.8353 10.3977C11.2562 10.9228 13.2426 13.3959 13.5706 13.7358C13.9386 14.1171 14.3068 13.9068 14.4252 13.7749C14.4252 13.7749 14.8325 13.3144 14.3068 12.881C13.9013 12.5469 11.5678 10.7936 10.9651 10.3407L10.9206 10.3074C11.0152 10.2001 11.0907 10.0774 11.1437 9.94451H14.7556C15.4464 9.94451 15.4031 10.562 15.3761 10.947C15.3683 11.0581 15.3619 11.1501 15.3748 11.2021C15.4333 11.4339 16.7101 11.1436 16.7295 10.4089C16.7485 9.67357 15.7732 9.5001 15.7732 9.5001H15.773ZM9.99988 10.1296C9.83285 10.1296 9.67264 10.0633 9.55446 9.9453C9.43628 9.82727 9.3698 9.66713 9.36965 9.5001C9.36965 9.33295 9.43605 9.17265 9.55424 9.05446C9.67243 8.93627 9.83274 8.86987 9.99988 8.86987C10.167 8.86987 10.3273 8.93627 10.4455 9.05446C10.5637 9.17265 10.6301 9.33295 10.6301 9.5001C10.6301 9.58282 10.6138 9.66472 10.5821 9.74113C10.5504 9.81754 10.5039 9.88696 10.4454 9.94542C10.3869 10.0039 10.3174 10.0502 10.241 10.0818C10.1645 10.1134 10.0826 10.1296 9.99988 10.1296ZM17.9115 8.82997C18.2497 8.98007 18.5898 9.13074 18.7406 9.19116C19.0317 9.30744 19.1199 9.50086 19.1199 9.50086C19.1199 9.50086 19.031 9.69333 18.7406 9.81056C18.5877 9.87136 18.24 10.0253 17.897 10.1773C17.5659 10.3239 17.2391 10.4687 17.0966 10.5259C17.0624 10.5394 17.0504 10.4727 17.0308 10.365C16.9887 10.1332 16.9121 9.71233 16.5083 9.50086C16.9121 9.28939 16.9887 8.86816 17.0308 8.63617C17.0504 8.52844 17.0624 8.46137 17.0966 8.47505C17.2412 8.533 17.5754 8.6812 17.9117 8.83016L17.9115 8.82997Z" fill="#FCF5ED"></path></g><defs><clipPath id="clip0_120_181"><rect width="19" height="19" fill="white" transform="translate(0.5)"></rect></clipPath></defs></svg> 