<?xml version="1.0" encoding="UTF-8"?> <svg xmlns="http://www.w3.org/2000/svg" width="19" height="19" viewBox="0 0 19 19" fill="none"><g clip-path="url(#clip0_120_78)"><path fill-rule="evenodd" clip-rule="evenodd" d="M9.49988 2.99222C9.71078 2.58866 10.1318 2.5119 10.3638 2.46934C10.4715 2.44977 10.5386 2.43761 10.5249 2.40341C10.4687 2.26281 10.3268 1.94209 10.1818 1.61491V1.61472C10.0283 1.26816 9.87152 0.914379 9.81015 0.759339C9.69387 0.469019 9.49988 0.380859 9.49988 0.380859C9.49988 0.380859 9.30665 0.469019 9.19018 0.759339C9.12938 0.912289 8.97586 1.25904 8.82443 1.60142C8.67756 1.93335 8.5324 2.26091 8.47559 2.40341C8.46172 2.43761 8.5286 2.44977 8.63595 2.46934C8.86775 2.51152 9.28841 2.58809 9.49988 2.99222ZM2.99124 9.5001C2.58768 9.28863 2.51111 8.8674 2.46893 8.6356C2.44955 8.52768 2.43739 8.4608 2.40319 8.47429C2.2586 8.53224 1.92439 8.68044 1.58809 8.8294C1.24989 8.97931 0.909793 9.12998 0.759123 9.1904C0.468803 9.30706 0.379883 9.5001 0.379883 9.5001C0.379883 9.5001 0.468803 9.69333 0.759123 9.8098C0.913403 9.87117 1.26433 10.0266 1.60918 10.1794C1.93807 10.3251 2.26145 10.4683 2.40338 10.5252C2.4372 10.5388 2.44936 10.472 2.46893 10.3642C2.51111 10.1324 2.58768 9.71157 2.99143 9.5001H2.99124ZM8.63595 16.5309C8.86775 16.4887 9.28841 16.4121 9.49988 16.0087C9.71059 16.4119 10.1311 16.4883 10.3631 16.5305C10.4714 16.5502 10.5386 16.5624 10.5249 16.5968C10.4676 16.7402 10.3211 17.0712 10.1734 17.4052C10.0228 17.7457 9.87076 18.0892 9.81015 18.2409C9.69311 18.5312 9.49988 18.6193 9.49988 18.6193C9.49988 18.6193 9.30665 18.5312 9.19018 18.2409C9.1309 18.0923 8.98365 17.7596 8.83602 17.4261V17.426H8.83583C8.68478 17.0851 8.53373 16.7435 8.47559 16.5968C8.46153 16.5626 8.52822 16.5504 8.63595 16.5309ZM15.273 9.5001C15.273 9.5001 16.2491 9.32606 16.2291 8.59057C16.2107 7.85527 14.9339 7.56552 14.8744 7.79827C14.8619 7.84995 14.8683 7.94115 14.8761 8.05173C14.9033 8.43667 14.947 9.05569 14.2554 9.05569H10.6435C10.5903 8.92293 10.5149 8.8002 10.4204 8.69279L10.6289 8.53604C11.4081 7.94989 13.4317 6.42799 13.8066 6.11848C14.3323 5.68452 13.925 5.22453 13.925 5.22453C13.8066 5.09267 13.4386 4.88234 13.0704 5.26367C12.7422 5.6051 10.7552 8.07738 10.3353 8.60254C10.2223 8.49674 10.0901 8.41354 9.94581 8.35744V4.74364C9.94581 4.05337 10.5629 4.09688 10.9481 4.12386C11.0594 4.13165 11.1514 4.13811 11.2032 4.12519C11.435 4.06667 11.1447 2.79063 10.4094 2.77049C9.67468 2.75149 9.50064 3.72752 9.50064 3.72752C9.50064 3.72752 9.32736 2.75206 8.59111 2.77068C7.85638 2.79063 7.56606 4.06743 7.79881 4.12538C7.85068 4.13811 7.94264 4.13165 8.05379 4.12386C8.43892 4.09688 9.05623 4.05356 9.05623 4.74364V8.35706C8.91186 8.41299 8.77962 8.4962 8.66673 8.60216C8.24531 8.07719 6.26038 5.60491 5.93073 5.26348C5.56346 4.88215 5.19467 5.09248 5.07611 5.22434C5.07611 5.22434 4.66875 5.68414 5.19467 6.11829C5.61077 6.46181 8.05797 8.30006 8.58085 8.69279C8.48625 8.80008 8.4108 8.92283 8.35779 9.05569H4.74608C4.05505 9.05569 4.09856 8.43762 4.12554 8.05249C4.13333 7.94153 4.13979 7.84995 4.12687 7.79789C4.06911 7.56533 2.79155 7.85565 2.77217 8.59038C2.75298 9.32587 3.72768 9.5001 3.72768 9.5001C3.72768 9.5001 2.75298 9.67338 2.77236 10.4089C2.79136 11.1436 4.06911 11.4339 4.12687 11.2021C4.1396 11.1501 4.13314 11.0589 4.12535 10.9481C4.09818 10.5632 4.05448 9.94451 4.74608 9.94451H8.35798C8.41118 10.0794 8.48756 10.2008 8.58104 10.3074C8.05816 10.6992 5.61115 12.538 5.19486 12.881C4.66894 13.3151 5.0763 13.7749 5.0763 13.7749C5.19486 13.9068 5.56289 14.1171 5.93092 13.7358C6.26057 13.3957 8.2455 10.9228 8.66692 10.3977C8.7794 10.5022 8.9105 10.5858 9.05642 10.6437V14.2556C9.05642 14.9459 8.43892 14.9029 8.05379 14.876C7.94264 14.8684 7.85087 14.8619 7.79881 14.8748C7.56701 14.9326 7.85733 16.2094 8.5913 16.2278C9.32755 16.248 9.50083 15.2725 9.50083 15.2725C9.50083 15.2725 9.67487 16.248 10.4096 16.2278C11.1449 16.2094 11.4352 14.9326 11.2034 14.8748C11.1514 14.8619 11.0596 14.8682 10.9486 14.876C10.5633 14.9029 9.94581 14.9459 9.94581 14.2556V10.6437C10.0899 10.5869 10.2221 10.5034 10.3353 10.3977C10.7562 10.9228 12.7426 13.3959 13.0706 13.7358C13.4386 14.1171 13.8068 13.9068 13.9252 13.7749C13.9252 13.7749 14.3325 13.3144 13.8068 12.881C13.4013 12.5469 11.0678 10.7936 10.4651 10.3407L10.4206 10.3074C10.5152 10.2001 10.5907 10.0774 10.6437 9.94451H14.2556C14.9464 9.94451 14.9031 10.562 14.8761 10.947C14.8683 11.0581 14.8619 11.1501 14.8748 11.2021C14.9333 11.4339 16.2101 11.1436 16.2295 10.4089C16.2485 9.67357 15.2732 9.5001 15.2732 9.5001H15.273ZM9.49988 10.1296C9.33285 10.1296 9.17264 10.0633 9.05446 9.9453C8.93628 9.82727 8.8698 9.66713 8.86965 9.5001C8.86965 9.33295 8.93605 9.17265 9.05424 9.05446C9.17243 8.93627 9.33274 8.86987 9.49988 8.86987C9.66703 8.86987 9.82733 8.93627 9.94552 9.05446C10.0637 9.17265 10.1301 9.33295 10.1301 9.5001C10.1301 9.58282 10.1138 9.66472 10.0821 9.74113C10.0504 9.81754 10.0039 9.88696 9.94542 9.94542C9.88689 10.0039 9.81742 10.0502 9.74097 10.0818C9.66453 10.1134 9.5826 10.1296 9.49988 10.1296ZM17.4115 8.82997C17.7497 8.98007 18.0898 9.13074 18.2406 9.19116C18.5317 9.30744 18.6199 9.50086 18.6199 9.50086C18.6199 9.50086 18.531 9.69333 18.2406 9.81056C18.0877 9.87136 17.74 10.0253 17.397 10.1773C17.0659 10.3239 16.7391 10.4687 16.5966 10.5259C16.5624 10.5394 16.5504 10.4727 16.5308 10.365C16.4887 10.1332 16.4121 9.71233 16.0083 9.50086C16.4121 9.28939 16.4887 8.86816 16.5308 8.63617C16.5504 8.52844 16.5624 8.46137 16.5966 8.47505C16.7412 8.533 17.0754 8.6812 17.4117 8.83016L17.4115 8.82997Z" fill="#402E00"></path></g><defs><clipPath id="clip0_120_78"><rect width="19" height="19" fill="white"></rect></clipPath></defs></svg> 