<?xml version="1.0" encoding="UTF-8"?> <svg xmlns="http://www.w3.org/2000/svg" width="55" height="54" viewBox="0 0 55 54" fill="none"><path d="M27.506 7C16.7218 7.01179 7.98822 15.7589 8.00001 26.5374C8.00277 29.8082 8.82873 33.0258 10.4019 35.8939L8.90467 45.0899L18.1055 43.5935C27.5514 48.7719 39.4109 45.3175 44.592 35.8758C49.7732 26.434 46.3178 14.5826 36.8711 9.40329C34.0009 7.82961 30.7797 7.00313 27.506 7ZM17.7516 15.8604H23.0689C23.3096 15.8604 23.5404 15.956 23.7105 16.1261C23.8807 16.2961 23.9763 16.5268 23.9763 16.7673C23.9465 17.9768 24.1498 19.1807 24.5752 20.3133C24.7583 20.6925 24.7986 21.1249 24.6886 21.5314C24.5786 21.9378 24.3257 22.291 23.9763 22.5262L22.1162 24.34C22.9409 25.9498 24.0194 27.4165 25.3101 28.684C26.5681 29.9951 28.0296 31.0945 29.6383 31.9398L31.4531 30.0807C32.3605 29.1737 32.7779 29.1737 33.6671 29.4821C34.8004 29.9072 36.0049 30.1104 37.215 30.0807C37.4521 30.0917 37.6765 30.1908 37.8443 30.3585C38.0122 30.5263 38.1113 30.7506 38.1224 30.9876V36.302C38.1113 36.539 38.0122 36.7633 37.8443 36.931C37.6765 37.0988 37.4521 37.1979 37.215 37.2089C31.8774 36.9765 26.8179 34.7649 23.0235 31.0057C19.2564 27.2173 17.0426 22.1581 16.817 16.8217C16.8192 16.5721 16.9175 16.3329 17.0916 16.1539C17.2657 15.9749 17.5021 15.8698 17.7516 15.8604Z" stroke="url(#paint0_linear_178_2022)" stroke-width="2" stroke-linecap="round" stroke-linejoin="round"></path><defs><linearGradient id="paint0_linear_178_2022" x1="9.21333" y1="8.5275" x2="53.1275" y2="29.956" gradientUnits="userSpaceOnUse"><stop stop-color="#D6B665"></stop><stop offset="1" stop-color="#AF9247"></stop></linearGradient></defs></svg> 