<?xml version="1.0" encoding="UTF-8"?> <svg xmlns="http://www.w3.org/2000/svg" width="24" height="24" viewBox="0 0 24 24" fill="none"><path d="M12.0005 1.25C6.05796 1.2565 1.24546 6.079 1.25196 12.0215C1.25348 13.8248 1.70861 15.5987 2.57546 17.18L1.75046 22.25L6.82046 21.425C12.0255 24.28 18.5605 22.3755 21.4155 17.17C24.2705 11.9645 22.3665 5.4305 17.161 2.575C15.5794 1.70739 13.8044 1.25173 12.0005 1.25ZM6.62546 6.135H9.55546C9.68807 6.135 9.81524 6.18768 9.90901 6.28145C10.0028 6.37521 10.0555 6.50239 10.0555 6.635C10.0391 7.3018 10.1511 7.96553 10.3855 8.59C10.4864 8.79904 10.5086 9.03746 10.448 9.26154C10.3874 9.48562 10.248 9.68034 10.0555 9.81L9.03046 10.81C9.48494 11.6975 10.0792 12.5062 10.7905 13.205C11.4836 13.9278 12.289 14.534 13.1755 15L14.1755 13.975C14.6755 13.475 14.9055 13.475 15.3955 13.645C16.0199 13.8794 16.6837 13.9914 17.3505 13.975C17.4811 13.9811 17.6048 14.0357 17.6973 14.1282C17.7897 14.2207 17.8444 14.3444 17.8505 14.475V17.405C17.8444 17.5356 17.7897 17.6593 17.6973 17.7518C17.6048 17.8443 17.4811 17.8989 17.3505 17.905C14.4093 17.7769 11.6213 16.5576 9.53046 14.485C7.45465 12.3964 6.23478 9.60709 6.11046 6.665C6.11165 6.52737 6.16583 6.3955 6.26175 6.29679C6.35766 6.19809 6.48792 6.14014 6.62546 6.135Z" stroke="#FCF5ED" stroke-width="0.5" stroke-linecap="round" stroke-linejoin="round"></path></svg> 